<?xml version="1.0" encoding="UTF-8"?>
<svg id="Layer_2" data-name="Layer 2" xmlns="http://www.w3.org/2000/svg" viewBox="0 0 390.38 331.98">
  <defs>
    <style>
      .cls-1 {
        fill: #090909;
      }

      .cls-2 {
        fill: #6f442c;
      }

      .cls-3 {
        fill: #472b1a;
      }

      .cls-4 {
        fill: #b87956;
      }

      .cls-5 {
        fill: #be002c;
      }

      .cls-6 {
        fill: #010101;
      }

      .cls-7 {
        fill: #fefefe;
      }
    </style>
  </defs>
  <g id="Layer_1-2" data-name="Layer 1">
    <g>
      <path class="cls-4" d="m0,330.32c.17.23.31.5.66.49.26.28.25.57.04.88-.23.08-.47.17-.7.25,0-.54,0-1.08,0-1.62Z"/>
      <path class="cls-6" d="m362.33,171.17c.34.78.68,1.56,1.01,2.35.81,1.92-.22,3.23-1.46,4.48-.54.09-.56-.32-.64-.68.02-.75.19-1.5.15-2.26-.07-1.25-.31-1.4-1.31-.7-.84.59-1.65,1.22-2.48,1.82-.4.29-.8.62-.57,1.2.49,1.25-.26,1.77-1.24,2.2-3.61,1.59-7.27,3.08-11.09,4.04-4.23,1.06-8.41,2.37-12.81,2.75-2.59.22-5.18.11-7.76.14-2.02.03-4.01.28-5.84,1.12-1.38.63-2.78.06-4.15.35-3.02.65-6.13.32-9.18.77-.32.05-.65-.02-.96-.13-1.16-.98-2.34-1.87-4.01-1.33-.3.07-.6.07-.89.03-.19-.03-.39-.06-.56.03.28,1.14,1.11,1.96,1.71,2.88,1.84,2.83,2.46,6.05,3.31,9.21.68,2.5,1.21,5.02,1.37,7.62.06.97.21,1.94.48,2.87,1.47,4.97,2.05,10.12,2.91,15.21.44,2.58.08,5.15-.5,7.69-.75,3.31-1.31,6.7-3.21,9.59-1.67,2.55-3.54,4.96-5.84,7-.46.02-.88-.11-1.21-.44-.3-.75.21-1.24.6-1.73.9-1.15,1.75-2.33,2.62-3.49,3.64-4.84,5.27-10.26,5.23-16.31-.02-3.16-.27-6.23-1.17-9.26-.54-1.81-.81-3.67-.85-5.58-.06-2.5-1.32-4.77-1.63-7.24-.61-4.78-1.59-9.47-4.14-13.66-1.13-1.86-2.56-3.49-4.22-4.87-1.43-1.19-3.36-1.41-4.99-2.23-4.62-2.34-9.38-4.38-14-6.71-2.84-4.69-6.31-8.95-9.14-13.65-.55-.91-1.35-1.68-2.1-2.44-.77-.79-1.71-1.31-2.89-1.15-.64-.15-.99-.64-1.26-1.17-2.92-5.79-5.61-11.68-8.09-17.67-.17-.4-.24-.83-.28-1.25-.04-.29-.22-.37-.5-.32-.14-.01-.27-.05-.4-.12-.58-.69-.47-1.66-1-2.37-.32-.43-.53-1.02-1.18-.96-.68.07-1.01.64-1.19,1.2-.72,2.27-1.9,4.37-2.57,6.64-1.16,3.94-3.24,7.4-5.39,10.83-1,1.59-1.02,1.56.35,2.78,1.66,1.48,3.4,2.92,3.37,5.45-.78,2.23-1.97,4.22-3.51,6.02-.43.5-1.06.84-1.28,1.7.84-.24,1.45-.66,2.16-.84,3.22-.81,6.52-1.03,9.79-1.13,5.12-.14,10.26-.33,15.38.26.54.06,1.08.04,1.56.35.54.59.51,1.25.25,1.95-.45.64-1.12.55-1.76.5-6.64-.51-13.29-.36-19.92-.12-3.86.14-7.58,1.51-10.9,3.69-4.13,2.72-8.52,5.06-12.35,8.24-1.42,1.18-2.24,2.93-3.92,3.81-1.4,0-1.81-1.55-2.97-1.93-.86-1.76-.92-3.75-1.57-5.59-1.14-3.22-2.94-5.98-5.25-8.46-8.87-9.52-18.32-18.46-27.42-27.76-.56-.57-1.68-1.02-1.04-2.22,1.5-.51,3.09-.19,4.62-.54,1.7-.38,2.26-1.41,1.32-2.87-.73-1.13-1.61-2.13-2.89-2.73-1.22-.57-2.45-1.12-3.69-1.64-1.93-.81-2.92-.46-4.02,1.38-.28.46-.49.97-1.08,1.13-.44.08-.7-.21-.95-.48-1.43-1.53-2.97-2.95-4.41-4.47-.46-.49-1.09-.97-.59-1.8,3.9-3.06,8.38-4.54,13.29-4.79,1.74-.09,3.2-.87,4.68-1.63.81-.11,1.13.52,1.48,1.05,5.41,8.02,11.54,15.48,17.96,22.7,4.12,4.63,8.34,9.18,13.26,13.02,1.9,1.48,4,2.55,6.3,3.22,2.46.71,4.3-.9,4.08-3.45-.21-2.4-1.18-4.48-2.6-6.36-2.51-3.31-5.12-6.54-8.09-9.47-5.99-5.91-11.63-12.16-17.34-18.34-.37-.4-.98-.78-.5-1.5,1.84-1.51,3.78-1.49,5.9-.6,2.09.88,4.24,1.61,6.28,2.61,2,.97,3.51,2.51,4.56,4.46.79,1.47,1.6,2.95,2.45,4.38.73,1.23,1.39,1.2,1.9-.06,1.94-4.74,4.09-9.41,5.19-14.46.46-2.11.3-2.52-1.82-3.19-3.45-1.08-6.99-1.74-10.56-2.37-4.31-.77-8.64-1.29-12.96-1.95-2.15-.33-4.31-.16-6.46-.32-1.4-.1-2.8.3-3.84,1.41-.68.35-1.12-.1-1.57-.48-.45-.38-.86-.81-1.27-1.24-1.33-1.38-2.84-1.9-4.67-1.01-.44.21-.9.37-1.4.34-2.96-1.24-6.05-1.88-9.23-2.23-1.4-.15-2.8-.14-4.2-.18-5.07-.12-10.14.3-15.2-.3-1.46-.17-2.62.44-3.64,1.4-.82.57-1.39.06-1.98-.44-1.23-1.06-2.13-2.42-3.26-3.57-1.81-1.84-3.92-3.36-5.63-5.3-2.55-2.9-5.24-5.65-8.31-8.01-.5-.39-.97-.85-1.26-1.45-.19-.67.1-1.12.69-1.41.24-.09.48-.12.73-.1.34.04.67-.06,1-.14.7-.13,1.4-.13,2.1-.11,4.01.13,7.94-.35,11.9-1.01,5.63-.94,11.32-1.63,17.06-1.58,6.42.06,12.85-.24,19.26.34,3.49.32,6.99.67,10.34,1.84,4.03,1.41,8.14,2.41,12.45,2.69,4.36.29,8.73.53,13.06,1.12,1.33.18,2.69-.41,4.01.07.11-.03.22.23.35.01.11-.19-.03.08-.1-.13-.34-.43-.63-.86-.29-1.42.32-.35.72-.47,1.18-.37.48.14.92.42,1.18.81,1.19,1.75,2.9,1.92,4.83,1.91,4.96-.02,9.89.67,14.85.85,5.45.2,10.9.1,16.36.04.71,0,1.4-.23,2.02-.54,3.15-1.54,6.37-2.92,9.4-4.7,3.52-2.07,7.11-4.09,11.11-5.17,1.54-.41,2.85-1.29,4.19-2.08,5.87-3.45,12.13-6.08,18.35-8.82,5.5-2.42,11.41-3.59,16.93-5.95,3.45-1.47,7.23-1.8,10.98-1.49,1.98.16,3.87.93,5.82,1.3.65.35,1.27.22,1.88-.12l2.22,1.51c.36.52.39,1.02-.15,1.44-1.01.43-2.04.26-3.01-.05-4.45-1.43-9.04-1.44-13.63-1.3-2.27.07-4.31,1.03-6.32,1.92-1.93.86-3.91,1.51-5.93,2.14-5.52,1.71-10.93,3.66-16.1,6.32-4.7,2.42-9.32,5.1-14.22,7.01-5.07,1.98-9.63,4.85-14.54,7.05-.72.43-1.42.92-2.17,1.41.92.21,1.8-.21,2.69-.19,6.42-.04,12.84.23,19.25.2,8.19-.04,16.38-.38,24.57-.81,3.27-.17,6.51-.37,9.83.09,4.66.64,9.36-.16,14.03-.63,1.34-.13,2.68-.3,4.02-.43,1.04.02,2.06.54,3.11.08.92-.07,1.43-.84,2.15-1.26,2.21-.46,4.39.17,6.59.23,1.88.05,3.74.15,5.62-.03,2.09-.2,4.19-.1,6.27.29.72-.06,1.42.01,2.04.43.35.12.71.34,1.05.33,2.16-.1,4.04.69,5.92,1.62.75.37,1.61.51,2.42.75l.08.11.12-.06c7.66.5,12.53,8.41,12.64,13.5-.39.42-.9.7-1.44.59-1.73-.34-3.16.46-4.61,1.15-1.22.58-2.42,1.2-3.74,1.51-1.09.26-1.62.91-1.2,2.01,1.7,4.38,1.03,8.81.4,13.25-.22,1.51-1.01,1.86-2.18.82-1.63-1.45-3.55-2.2-5.62-2.72-1.05-.27-1.28-.02-1.16,1.1.52,4.74-1.8,8.31-6.42,9.36-1.02.23-2.58.12-2.71,1.33-.15,1.38,1.51,1.44,2.49,1.86,1.37.58,2.54,1.37,3.6,2.41,1.23,1.22,1.84,1.1,2.78-.37.29-.45.6-.9.83-1.39,1.86-3.99,5.13-6.43,9.01-8.19.45-.2.93-.47,1.39-.34,1.75.47,3.52.7,5.33.66-1.84,3.87-3.01,7.93-3.73,12.16-.27,1.6-1.13,3.11-1.79,4.63-.74,1.72-.06,3.51-.38,5.24-.37.4-.82.2-1.24.17-1.17.5-1.44,1.82-2.32,2.58-.7.47-.69,1.37-1.2,1.95-1.38,1.08-1.99,2.8-3.28,3.96-.31.28-.56.63-.83.94-.82-.14-1.6-.12-2.19.59-1.06.74-1.93,1.7-2.8,2.64-1,.39-.71,1.5-1.22,2.17-1,.78-2.46.26-3.4,1.19-.01.11-.02.21-.04.32Z"/>
      <path class="cls-2" d="m339.76,68.47c-2.43-.12-4.62-1.35-7.09-1.36-4.1,0-8.06.58-11.79,2.3-3.05,1.4-6.3,2.17-9.47,3.16-3.3,1.03-6.43,2.45-9.59,3.78-3.71,1.56-7.28,3.48-10.94,5.17-1.29.59-2.44,1.4-3.59,2.18-2.46,1.67-5.38,2.16-8.02,3.35-3.23,1.46-6.18,3.4-9.32,5.01-2.25,1.15-4.55,2.22-6.85,3.28-1.04.48-2.15.65-3.31.64-4.91-.04-9.83.1-14.74-.07-4.68-.16-9.35-.61-14.02-.93-.05,0-.11-.01-.16,0-3.02.42-5.62-.2-7.41-2.91-4.29-3.34-8.12-6.87-9.22-12.7-.61-3.21-1.9-6.39-3.73-9.24-1.77-3.79-3.62-7.55-4.87-11.57-.66-2.11-1.96-3.94-2.98-5.9-.56-1.08-.87-2.1.06-3.13,2.51-1.85,4.53-4.31,7.08-6.07,3.43-2.38,6.54-5.22,10.28-7.15,1.07-.32,1.81-1.16,2.74-1.71,4.58-2.72,9.6-4.42,14.6-6.02,3.88-1.24,8.04-1.44,12.12-1.74,1.45-.11,2.9-.15,4.32-.51,4.29-1.08,8.62-1.18,12.97-.35,1.33.55,2.7.92,4.16.88,2.62.38,5.23.74,7.86,1.03,2.74.3,5.38,1.18,7.73,2.73,5.09,3.37,10.62,5.95,15.85,9.08,1.07.64,2.17,1.22,3.07,2.09,1.93,1.86,4.53,2.73,6.54,4.47,1.35,1.17,2.68,2.35,4.15,3.36,1.85,1.57,3.57,3.28,5.32,4.96.5.68,1.37.74,2.01,1.19.68.67,1.35,1.34,2.03,2.01,1.11,1.73,2.99,2.58,4.48,3.86,2.67,2.3,5.87,3.67,9.01,5.14.48.23,1.05.4,1.34.86.44.68.2.99-.6.82Z"/>
      <path class="cls-5" d="m156.71,331.87c-.86.02-1.73.06-2.59.06-49.95,0-99.9,0-149.85,0-.59,0-1.18-.08-1.76-.12-.36-.53-.14-1.02.1-1.52.71-1.5,1.22-3.1,2.07-4.54.99-1.68,1.15-3.54,1.05-5.45-.04-.8-.05-1.61.11-2.41.09-.4.23-.8.21-1.22-.01-1.03.22-2.02.51-3.01.58-1.96,1.26-3.87,1.58-5.92.34-2.13,1.53-4.02,2.53-5.9,1.36-2.57,2.91-5.02,4.06-7.71,1.19-2.78,2.68-5.43,4.49-7.83,2.04-2.7,4.62-4.94,7.14-7.2,1.26-1.13,2.36-2.55,4.16-2.96.26-.02.52.01.78.09,4.83,2.26,9.06,5.44,13.19,8.74,1.75,1.4,3.59,2.67,5.62,3.48,6.37,2.51,12.8,4.88,19.72,5.46,1.57.13,3.06.66,4.59.95,5.7,1.09,11.49,1.53,17.19,2.87,4.35,1.02,8.88,1.62,13.35,2.3,2.45.38,4.88.81,7.25,1.61,3.18,1.08,6.53.56,9.81.66.2,0,.39.01.58.04,2.31.39,4.64.3,6.94.19,7.55-.37,15.05,1.16,22.59.64,6.93-.48,13.88-.67,20.81-.83,5.28-.13,10.54-.36,15.8-.74.85-.06,1.73-.09,2.53.33.8.58.52,1.2.03,1.79-.86,1.03-1.67,2.1-2.62,3.06-1.58,2.23-3.71,3.88-5.73,5.66-4.57,4.04-9.5,7.63-14.31,11.36-3.28,2.54-6.64,5.01-10.32,6.97-.11.08-.23.15-.35.23-.05.04-.11.08-.16.13-.09.1-.18.19-.27.29-.08.11-.19.19-.3.26-.19.07-.4.05-.57.17Z"/>
      <path class="cls-5" d="m271.65,331.89c-11.37.02-22.74.05-34.11.04-2.31,0-4.62.2-6.93-.14-.29-.71.07-1.27.48-1.78,1.29-1.59,2.45-3.28,3.82-4.81,2.41-2.69,4.25-5.84,6.88-8.36.7-.67,1.02-1.64,1.26-2.6.16-.63.41-1.21.81-1.75.89-1.2.8-1.61-.53-2.13-1.71-.66-3.4-1.4-5.23-1.68-.53-.08-1.07-.19-1.57-.38-1.79-.64-2.21-1.9-1.03-3.37,1.03-1.28,1.84-2.65,2.44-4.17.28-.71.67-1.37,1.5-1.59.3-.08.61-.16.91-.25.83-.2,1.66-.39,2.48-.64,2.51-.8,5.07-1.43,7.38-2.82,1.81-1.09,3.24-2.48,4.26-4.3.12-.27.27-.52.41-.78.09-.2.13-.41.14-.63-.15-1.3-.56-2.52-.97-3.75-.53-1.6-.17-2.1,1.47-2.48,2.47-.57,4.53-2.01,6.6-3.35,1.86-1.21,3.82-2.2,5.76-3.27,2.4-1.32,5.01-2.29,7.2-3.98,1.77-1.36,3.52-1.87,5.67-.85,1.16.55,2.45.9,3.58,1.49,4.39,2.31,9.18,3.77,13.49,6.24,2.19,1.25,4.36,2.61,6.23,4.32,1.38,1.26,1.37,1.83.34,3.34-1.95,2.85-4.32,5.4-6.13,8.34-1.7,2.76-3.63,5.36-5.43,8.04-1.48,2.2-3.58,3.87-5.33,5.85-3.3,3.75-6.16,7.73-8.42,12.21-1.5,2.98-3.39,5.77-5.73,8.19-.63.53-.72,1.57-1.67,1.78Z"/>
      <path class="cls-2" d="m298.65,249.35c2.65-3.36,6-6.33,7.25-10.55,1.53-5.19,2.87-10.47,1.69-16.01-1.04-4.87-2.12-9.75-2.84-14.66-.64-4.37-1.69-8.63-2.69-12.9-.65-2.76-2.29-5.2-4.06-7.46-.72-.93-.37-1.13.6-1.03.08.09.18.15.31.16.34.04.68.08,1.03.11.49.04.98.09,1.33.48.69.76,1.6.79,2.53.8,3.43-.25,6.88-.17,10.29-.74.81-.13,1.6-.27,2.39,0,.45.15.83.07,1.24-.13,2.13-1.02,4.39-1.47,6.73-1.35,8.89.46,17.28-1.72,25.53-4.71,2.03-.73,4.08-1.38,6.03-2.32.8-.39,1.48-.62.44-1.5-.62-.53-.24-.95.24-1.3,1.25-.93,2.52-1.84,3.77-2.78.32-.24.64-.42,1.03-.27.46.18.38.61.37.97-.05,1.07.22,2.17-.32,3.18-.46,1.09-1.67,1.7-1.92,2.93-.47.55-1.04.96-1.68,1.27-.78.41-1.38,1.05-1.81,1.79-1.55,2.64-2.99,5.35-5.09,7.63-.25.28-.3.69-.52,1h.05c-1.64,1.74-3.52,3.3-4.5,5.59-1.04,2.43-2.42,4.68-3.52,7.07-.9,1.96-1.64,3.97-1.84,6.17-.22,2.41-1.75,4.39-2.4,6.66-2.23,3.1-4.11,6.41-6.04,9.69-.9,1.53-2.12,2.83-2.94,4.43-1.12,2.2-2.27,4.38-3.28,6.64-1.34,3.01-3.54,5.48-5.88,7.79-2.02,2.44-4.64,4.13-7.23,5.87-3.37,2.27-7,3.97-10.73,5.55-4.12,1.75-8.38,3.02-12.79,3.08-2.94.04-5.59.83-8.33,1.52-1.27.32-2.56.27-3.85.4-.16.03-.32.03-.49,0-.27-.25-.46-.19-.59.14-2.03.9-3.69,2.63-6.09,2.74-.53.03-1.05.24-1.59.05-.42-.2-.71-.51-.93-.91-.2-.39-.32-.8-.39-1.23-.38-2.22.25-2.89,2.49-3.05,4.12-.29,8.28-.44,12.22-1.92.35-.13.72-.26,1.1-.26,3.56.02,6.67-1.55,9.89-2.75,1.15-.43,1.93-1.31,2.69-2.25,1-1.25,1.77-2.7,3.12-3.65Z"/>
      <path class="cls-5" d="m326.56,331.9c-14.24.01-28.48.03-42.72.04-3.4,0-6.79-.04-10.19-.06-.32-.34-.34-.73-.22-1.15,1.95-2.5,4.27-4.7,5.97-7.41,1.34-2.14,2.76-4.21,3.94-6.47,1.23-2.35,2.76-4.61,4.7-6.51,3.68-3.59,6.87-7.56,9.73-11.84,1.73-2.6,3.4-5.24,5.2-7.79.16-.22.31-.46.52-.62,3.11-2.37,5.33-5.63,8.2-8.23,1.05-.95,1.85-2.1,2.81-3.12.11-.11.23-.22.36-.31.13-.09.28-.16.43-.22.24-.07.47-.08.72-.05.51.08.94.34,1.23.72,2.36,3.1,5.62,5.14,8.65,7.45.34.26.7.52.97.85,2.81,3.53,6.25,6.33,9.93,8.9,2.25,1.57,4.04,3.7,6.2,5.41,1.18.93.83,2.18.13,3.2-1.09,1.6-2.11,3.25-3.25,4.81-1.89,2.58-3.55,5.26-4.68,8.27-.83,1.83-2.4,3.12-3.46,4.8-1.19,1.9-2.53,3.71-3.58,5.7v-.05c-.43,1.27-.74,2.6-1.59,3.69Z"/>
      <path class="cls-5" d="m228.29,331.88c-.54.02-1.08.05-1.62.05-21.02,0-42.03,0-63.05,0-.64,0-1.29-.08-1.93-.12-.2-.51.05-.91.3-1.31,1.63-1.58,3.6-2.71,5.38-4.11,4.77-3.76,9.28-7.83,13.98-11.67,2.79-2.27,5.67-4.46,8.03-7.23,1.12-1.66,2.65-2.95,3.96-4.44.13-.19.27-.36.43-.52,1.97-2.33,4-4.62,4.96-7.62.04-.15.09-.3.14-.45.43-1.39.86-2.77,1.7-4,.7-1.02,1.49-1.14,2.48-.51.5.32,1.01.65,1.43,1.06,4.3,4.13,9.62,6.73,14.62,9.79,1.21.74,2.34,1.5,3.24,2.63,1.11,1.4,2.72,2.13,4.37,2.65,4.42,1.39,8.64,3.32,13.27,4.13,3.28.57,4.1,3.02,1.73,5.32-4.99,4.85-8.68,10.72-13.06,16.04-.1.12-.24.21-.36.32Z"/>
      <path class="cls-2" d="m51.28,17.57c.77-.98,1.54-1.97,2.31-2.95.06-.12.14-.22.24-.3h0c2.15-1.33,4.48-2.42,5.86-4.7.13-.22.4-.38.19-.69.16-.08.28-.04.34.14.24-.14.48-.27.74-.36,2.62-.44,4.99-1.73,7.59-2.23,3.74-.71,7.53-.49,11.28-.28,2.21.13,4.42.31,6.61.17,4.13-.26,7.76,1.36,11.27,3.03,2.89,1.37,5.62,3.2,8.2,5.15,1.71,1.36,3.27,2.88,5.48,3.56,1.35.42,2.17,1.7,3.06,2.78,1.42,1.73,2.62,3.65,4.4,5.07.16,2.44,2.24,3.4,3.71,4.83-.76,1.29-2.15,1.78-3.4,1.9-4.08.38-7.62,2.32-11.36,3.66-4.95,1.77-9.88,3.59-14.99,4.82-2.49.59-4.53,1.99-6.75,3.07-4.98,2.41-9.24,5.7-12.26,10.44-.89,1.4-1.97,2.68-3.96,1.87-.21-.1-.42-.22-.63-.33-.2-.12-.39-.25-.61-.34-2.22-1.53-4.28-3.27-5.81-5.51-1.28-1.87-2.9-3.46-4.12-5.36-1.76-2.92-4.25-5.29-6.18-8.09-.89-1.28-1.56-2.55-1.81-4.08-.21-1.28-.26-2.59-.64-3.83-1.21-3.91.06-7.55,1.15-11.21l-.02.1c.09-.05.13-.12.13-.19,0-.09-.01-.13-.03-.13Z"/>
      <path class="cls-2" d="m329.42,9.17c.4.21.71.51.91.93.7,1.5,1.7,2.83,2.5,4.28,1.01,1.83,1.67,3.73,1.54,5.81-.11,1.82.26,3.48,1.15,5.05.17,1.6-.11,3.19-.18,4.78-.1,2.18-1.24,3.93-2.34,5.7-1.21,2.03-2.67,3.9-3.67,6.07-.51,1.11-1.47,1.98-2.56,2.63-2.04,1.21-4,2.52-5.71,4.21-1.44,1.42-2.8,1.42-4.5.27-3.88-3.09-8-5.86-12.1-8.64-1.78-1.21-3.12-2.95-5.15-3.86-4.53-2.04-8.61-4.94-13.05-7.13-3.28-1.62-6.74-2.94-10.53-2.88-.76.01-1.51-.08-2.16-.54-.41-.34-.67-.78-.84-1.27-.19-.76-.18-1.53-.04-2.3.86-4.38,2.68-8.25,6.1-11.24.49-.43.84-.98,1.28-1.44,3.13-2.3,6.64-3.67,10.46-4.31,2.8-.47,5.03-2.42,7.79-3,3.09-.26,6.21.07,9.29-.43,3.63-.05,7.25.06,10.8.96,1.68.66,3.16,1.68,4.63,2.69.76.69,1.74,1.04,2.57,1.62.16.12.33.23.52.31.52.15,1,.37,1.38.77.15.27.36.21.58.11.2.02.36.15.56.14.29-.08.38.1.42.34.02.21.12.35.34.39Z"/>
      <path class="cls-1" d="m6.17,317.64c0,.27-.03.54-.01.81.28,3.28-.2,6.37-1.98,9.25-.77,1.24-1.13,2.73-1.68,4.11-.61.11-1.23.3-1.81-.12-.01-.29-.03-.59-.04-.88,1.71-2.42,2.39-5.32,3.64-7.96.1-.21.09-.42.03-.63-.02-1.51,0-3.02-.07-4.53-.09-2.43.19-4.73,1.77-6.73.61-.78.49-1.74.46-2.65-.06-1.78.26-3.34,1.59-4.74.81-.85.96-2.31,1.71-3.25,2.41-2.98,3.42-6.65,5.12-9.98,2.08-4.07,4.64-7.7,8.24-10.55,1.18-.94,2.33-1.95,3.62-2.71,2.77-1.64,2.88-5.34,1.9-7.63-.44-1.04-.99-2.03-1.23-3.15-.07-.2-.04-.38.09-.55.88-.32,1.29.36,1.73.88.93,1.11,2.06,1.67,3.53,1.63,2.32-.07,4.03,1.43,5.87,2.51,1.23.73,2.49,1.34,3.88,1.54,4.85.7,9.35,2.64,14.05,3.87,5.16,1.35,10.28,2.96,15.71,2.76.54-.02,1.11-.06,1.61.12,5.54,1.93,11.56,1.61,17.06,3.69.81.31,1.68.42,2.55.38,1.87-.07,3.62.38,5.38.97,2.94.99,6.06,1.08,9.1,1.25,11.38.62,22.79.47,34.18.33,5.56-.07,11.12-.29,16.68-.28.54,0,1.1,0,1.61-.18,3.27-1.12,6.7-1.04,10.07-1.37.81-.08,1.62-.01,2.42.11,1.56.23,3.13.25,4.68-.03,4.78-.86,9.59-.33,14.39-.44.43,0,.86.08,1.23.35.42.52.43,1.09.25,1.7-.28.65-.88.74-1.48.79-.59.05-1.19.05-1.78.03-7.94-.22-15.87.48-23.8.36-2.06-.03-4.07.53-6.06,1.01-1.64.39-3.28.59-4.97.59-14.91-.02-29.82-.02-44.73,0-1.42,0-2.8-.1-4.14-.6-.45-.17-.93-.29-1.42-.32-5.9-.31-11.56-2.02-17.35-2.97-5.88-.97-11.64-2.87-17.73-2.67-2.42.08-4.69-1.18-7.12-1.45-4.22-.47-8.06-2.37-12.18-3.26-2.25-.49-4.41-1.37-6.72-1.77-2.75-.47-5.2-1.79-7.6-3.15-1.06-.6-2.13-1.04-3.35-1.05-.64,0-1.53-.49-1.72.58-.18,1-.33,2.12.94,2.62,1,.4,2.02.74,2.98,1.25,4.18,2.21,7.73,5.31,11.52,8.08,2.19,1.6,4.6,2.77,7.07,3.88,5.45,2.45,11.24,3.21,17.04,4.29,7.1,1.32,14.35,1.94,21.29,4.1.62.27,1.26.17,1.9.09,2.97.18,5.88.7,8.76,1.42,1.42.35,2.83.67,4.3.67,1.65,0,3.18.56,4.71,1.1,2.32.82,4.7,1.06,7.14,1.18,6.9.34,13.81.07,20.7.38,3.19.14,6.35-.16,9.52-.11,1.62.03,3.24.05,4.83.39,1.13.24,2.25.2,3.36-.1.63-.17,1.27-.25,1.92-.26,5.5-.05,11-.14,16.5-.27,5.02-.12,9.99-.82,15-.93.65-.01,1.29-.13,1.91.16.89,1.47.55,2.34-1.12,2.82-2.23-.57-4.48-.42-6.71-.09-1.23.18-2.44.4-3.69.38-7.11-.15-14.22.34-21.32.56-4.35.13-8.72.71-13.05.39-7.53-.55-15.06-.5-22.6-.59-.69,0-1.37-.23-2.06-.36-.09-.09-.18-.09-.27-.01-3.28-.11-6.61.48-9.81-.62-1.9-.65-3.83-1.08-5.8-1.41-2.97-.49-5.93-1.06-8.89-1.65-1.38-.28-2.75-.51-4.16-.51-2.58,0-4.93-1.06-7.39-1.65-1.05-.25-2.09-.59-3.17-.55-3.77.13-7.35-1.01-11.01-1.57-4.43-.67-8.82-1.48-13.13-2.7-.72-.2-1.48-.38-2.13-.73-2.68-1.41-5.72-1.83-8.38-3.37-2.04-1.18-3.78-2.68-5.62-4.08-3.62-2.74-7.39-5.24-11.36-7.42-.18-.14-.4-.11-.6-.16-2.54,1.74-4.9,3.71-6.9,6.02-.83.96-1.93,1.53-2.72,2.49-2.13,2.59-3.89,5.41-5.3,8.44-1.42,3.08-3.12,6-4.66,9.01-1.14,2.23-2.46,4.46-2.72,7.17-.24,2.48-1.64,4.77-1.93,7.3.04.31.12.63-.1.91Z"/>
      <path class="cls-2" d="m329.01,245.09c-.38-1.47-.62-2.92.38-4.27.96-.1,1.93-.05,2.89-.04.87.01,1.59.38,2.03,1.1,1.97,3.22,4.84,5.69,7.09,8.67,2.05,1.89,4.5,2.2,7.07,1.62,2.78-.62,5.57-1.11,8.42-1.27.39.03.78.09,1.17.02.39-.06.77-.06,1.16.03.44.14.9.18,1.36.22.56.09,1.05.29,1.41.74.23.47.57.86.97,1.2.19.25.33.53.38.84-.26,1.58-1.57,2.19-2.79,2.6-2.07.69-3.93,1.69-5.68,2.95-.41.37-1.29.41-1.16,1.12.11.56.88.47,1.37.64.7.24,1.48.35,1.82,1.15.07,1.71-.09,1.91-2.14,2.66-1.4.21-2.68.73-3.97,1.31-3.14,1.43-6.41,2.17-9.87,1.42-.47-.1-.94-.24-1.37-.48-.67-.38-1.3-.85-1.3-1.71,0-.81.62-1.19,1.22-1.58.86-.57,1.97-.53,2.72-1.33-1.48.12-2.91.44-3.94,1.68-.86,1.03-.69,2.07.08,3.1.48.63.38,1.27,0,1.96-1.13,2.05-.04,4.36,2.31,4.94,2.15.54,2.53,1.22,1.69,3.3-.56,1.4-1.3,2.72-1.67,4.19-.4.58-.8,1.15-.99,1.84-1.26,2.32-2.62,4.59-3.9,6.89-.92,1.64-1.89,1.92-3.1.46-1.74-2.1-3.94-3.65-5.9-5.49-1.14-1.07-2.6-1.74-3.61-2.97-.62-.76-1.11-1.56-.42-2.47,2.46-3.25,2.97-7.24,4.25-10.94.11-.3.15-.63.3-.92.91-2.06,1.74-4.14,1.83-6.43.3-2.18,1.51-4.25.84-6.56.04-1.9.07-3.8.11-5.7.63-1.74-.64-3.04-1.06-4.53Z"/>
      <path class="cls-1" d="m327.57,268.43c-1.25,4.03-1.79,8.33-4.45,11.83-.79,1.04-.2,1.72.52,2.32,1.77,1.49,3.54,2.97,5.39,4.36,1.43,1.08,2.56,2.44,3.78,3.73,1.46,1.54,1.76,1.42,2.75-.38,1.24-2.26,2.59-4.46,3.9-6.68.32-.18.62-.18.91.08-1.21,2.03-2.41,4.06-3.64,6.08-1.37,2.25-1.24,3.51.75,5.21,2.25,1.92,4.55,3.78,6.84,5.65.7.57,1.24,1.21,1.06,2.2l-.03.16c-1.6,2.72-3.78,5.03-5.33,7.82-1.36,2.45-2.88,4.87-4.52,7.17-.25.03-.4-.08-.48-.31.78-3.1,2.58-5.65,4.4-8.19,1.31-1.83,2.53-3.72,3.77-5.6.53-.8.44-1.55-.36-2.12-2.37-1.69-4.11-4.19-6.59-5.67-4.48-2.68-7.57-6.84-11.45-10.13-1.84-1.56-3.92-2.81-5.72-4.45-1.14-1.04-1.63-2.74-3.28-3.24-.22.02-.44,0-.63.16h-.01c-.09.13-.19.23-.31.32-3.14,3.69-6.43,7.24-9.95,10.57-.74.7-1.48,1.4-2.05,2.27-3.55,5.4-7.06,10.84-11.28,15.76-.56.65-1.13,1.32-1.77,1.88-3.08,2.71-5.1,6.15-7.09,9.69-2.44,4.31-5.33,8.36-8.99,11.78-.62.16-.92,0-.68-.69,2.85-3.39,5.22-7.08,7.21-11.06,2.16-4.32,5.39-7.92,8.73-11.36,3.29-3.39,5.85-7.27,8.4-11.21,2.01-3.12,4.28-6.08,6.64-8.95,1.14-1.38.97-2.29-.29-3.19-3.68-2.63-7.31-5.4-11.71-6.72-1.91-.57-3.49-1.66-5.24-2.48-2.59-1.22-5.25-2.22-7.94-3.17-1.34-.47-2.19.48-3.03,1.08-2.68,1.93-5.7,3.23-8.62,4.67-2.77,1.37-5.11,3.38-7.9,4.7-1.17.55-2.24,1.31-3.52,1.59-1.79.39-1.89.56-1.22,2.32.47,1.26.99,2.51.82,3.9.02.13-.02.23-.13.31-.12.22-.24.45-.37.67-.43.1-.68-.13-.86-.47-.28-1.47-.44-2.95-1.22-4.32-.61-1.08-1.27-1.71-2.55-1.4-.16.04-.32.04-.48.04-.63,0-1.27-.11-1.43-.8-.18-.77.49-1.07,1.06-1.18,1.94-.37,3.22-1.65,4.49-3,2.76-2.94,2.01-7.05-1.6-8.73-.67-.31-1.51-.55-1.47-1.51.04-.89.77-1.24,1.49-1.52,3.81-1.5,7.53-3.27,11.63-3.92.68-.11,1.44-.23,1.52-1.17.08-.96-.01-1.88-.96-2.4-1.88-1.02-3.86-1.66-6.03-1.54-4.2.22-8.3,1-12.43,1.83-4.34.87-8.76,1.83-13.28,1.67-2.7-.09-3.73-.61-4.59-3.21-1.55-4.71-7.62-7.46-12.33-5.09-.34.09-.67.08-.99-.07-.46-.35-.3-.82-.09-1.16.73-1.19.15-2.02-.67-2.82-.73-.71-1.42-1.46-2.24-2.08-.48-.36-.92-.75-.98-1.41.06-.71.16-1.39.94-1.7.88-.1,1.38.52,1.91,1.05,1.1,1.12,2.29,2.13,3.47,3.16,1.14.99,2.37,1.61,3.9,1.79,2.14.25,4.03,1.32,5.75,2.5,2.68,1.84,5.73,2.72,8.71,3.83.66.24,1.48.29,1.93.8,1.9,2.14,4.25,1.32,6.46,1.01,1.59-.23,3.23-.52,4.73-1.1,2.91-1.13,5.96-.86,8.94-1.23,2.35-.29,4.63.22,6.8,1.14,1.39.59,2.77.84,4.25.34.77-.26,1.6-.22,2.41-.21,5.32.05,10.51-.68,15.61-2.27,1.92-.6,3.78-1.19,5.51-2.22,1.43-.85,2.58-1.91,3.43-3.35.43-.72.75-1.78,2-1.48.4.04.84-.02,1.09.41-1.04,1.97-2.52,3.59-3.95,5.26-.78.91-1.93,1.09-2.97,1.52-2.79,1.14-5.59,1.99-8.65,2.36-2.61.31-5.12,1.47-7.82,1.66-1.92.13-3.84.4-5.76.49-2.01.09-2.22.26-2,2.28.06.53.13,1.06.2,1.59-.1.3-.48.39-.55.74.45.24.87-.17,1.31-.08,2.12-.28,4.23-.57,5.88-2.15.54-.52,1.3-.43,1.94-.7.08-.15.17-.16.26,0,.12,0,.23,0,.35,0,.42.16.64.4.33.85-1.51,2.02-.88,5.55,1.37,6.35,4.24,1.53,8.26,3.56,12.44,5.23,5.05,2.02,9.87,4.44,13.96,8.21,2.07,1.91,2.47,1.91,3.97-.45,1.77-2.79,4.32-4.6,7.16-6.12.13.02.24,0,.35-.07.73.24,1.35.58,1.66,1.36.57,1.46,1.71,2.25,3.21,2.59.09-.03.19-.03.28-.02,1.47-1.08,2.07-2.64,2.58-4.32.87-2.86,1.38-5.87,3.02-8.46.7.12.41.59.35.99Z"/>
      <path class="cls-1" d="m386.77,132.61c-1.54.62-3.04.56-4.54-.16-.76-.37-1.44-.03-2.16.27-4.49,1.9-7.53,5.21-9.63,9.54-.88,1.81-1.85,1.93-3.19.41-1.28-1.44-2.91-2.17-4.62-2.85-.44-.18-.89-.38-1.28-.65-1.14-.77-1.07-1.32.06-2.17.84-.63,1.82-.6,2.75-.79,2.75-.55,4.88-2.59,5.56-5.33.35-1.42.8-2.77.16-4.24-.47-1.07.31-1.28,1.09-1.07,2.43.67,4.93,1.24,6.72,3.27.61.69,1.29.6,1.28-.36-.03-2.01.62-3.92.73-5.91.14-2.63-.24-5.16-1.11-7.61-.53-1.49-.08-2.23,1.42-2.49,1.4-.24,2.69-.84,3.86-1.59,1.91-1.24,4.05-1.1,6.14-1.28.76,2.79.12,5.57-.1,8.34-.34,4.32-2.42,8.32-2.49,12.71,0,.66-.43,1.31-.66,1.96Z"/>
      <path class="cls-1" d="m18.04,176.42c.38-1.76.75-3.52,1.13-5.28l.1-.12-.07-.13c.03-1.63,1.28-2.67,1.91-4.02.12-.04.15-.12.1-.24.05-.37.19-.75.15-1.11-.25-2.32.42-4.35,1.83-6.17.3-.39.49-.84.5-1.34.06-2.24.77-4.33,1.52-6.41.94-2.63.85-5.53,2.11-8.07.09-.04.12-.11.09-.2,1.38-5.13,3.65-9.87,6.45-14.34,1.42-2.27,2.75-4.61,4.15-6.88,1.81-2.96,3.77-5.7,6.08-8.27,1.21-1.34,1.72-3.2,3.08-4.5,3.62-3.44,7.85-6.03,12.08-8.6,1.61-.98,2.66-2.11,2.65-4.08,0-1.58.33-3.11,1.06-4.52.59-1.14.57-2.39.75-3.61,0-.1.02-.21.04-.31.72-5.22,1.01-10.5,2.15-15.66l.09-.09-.04-.12c.19-.77.37-1.53.56-2.3.33-.27.66-.27,1.01-.04.61,1.06.57,2.27.26,3.3-1.04,3.5-.83,7.15-1.44,10.7-.36,2.07-.57,4.16-1.26,6.16-.12.35-.34.77.03,1.04.33.24.75.03,1.06-.16,1.67-1.04,3.46-1.66,5.43-1.84.97-.09,1.92-.32,2.86.1.61.75.07,1.22-.49,1.53-1.22.69-2.41,1.34-3.13,2.68-.4.75-1.11.38-1.66-.05-.93-.74-1.25-.21-1.29.67-.05,1.34-.14,2.68-.29,4.02-.13,1.16.36,1.43,1.47.97,2.34-.97,2.88-.76,4.03,1.53.48.96,1.01,1.9,1.55,2.83.29.5.65,1.02.28,1.65-.49.36-1.04.3-1.55.11-3.5-1.35-7.39-1.9-10.09-5.04.76,2.88-.62,5.46-.84,8.17-.3,3.71-1.43,7.15-2.59,10.63-.64,1.91-1.74,3.6-2.33,5.51-.23.76-.72,1.47-1.66,1.07-.98-.41-.94-1.36-.5-2.07,1.29-2.1,1.78-4.52,2.82-6.71.61-1.29.99-2.61,1.06-4.04.11-2.61.98-5.08,1.49-7.61.07-.37.19-.73.25-1.1.11-.68.46-1.52-.14-2-.72-.56-1.28.28-1.81.63-3.38,2.22-6.78,4.49-9.74,7.2-2.56,2.33-4.83,5.09-6.36,8.3-.41.86-1.15,1.42-1.68,2.16-5.76,8.05-10.34,16.71-12.74,26.35-1.24,4.99-2.98,9.8-4.38,14.72-2.49,8.76-4.44,17.65-6.55,26.51-.43,1.79-.53,3.63-.59,5.46-.07,2.04-.68,3.9-1.43,5.75-.79.27-1.17-.24-1.52-.81.13-.85.27-1.71.4-2.56-.04-.08-.03-.16.03-.23.02-.37.05-.74.07-1.11,0,0,.01-.16.01-.16.3-1.87.6-3.74.91-5.61,0,0-.07-.14-.07-.14,0,0,.13-.09.13-.09.08-.26.16-.51.23-.77.02-.07.04-.13.05-.2.44-1.98.88-3.97,1.33-5.95,0-.07.01-.13.02-.2.26-1.56.52-3.12.77-4.68.04-.07.07-.14.1-.21Z"/>
      <path class="cls-6" d="m214.74,254.16c.29,0,.58,0,.87,0,1.26,3.37,3.21,6.48,3.74,10.12.05.25.1.49.15.74.34,2.86-.13,5.69-.32,8.54-.27,4.18-1.6,8.12-2.46,12.17-.6,2.84-.77,5.78-2.4,8.32-.46.73-.09,1.24.58,1.55,3.41,1.59,6.29,3.92,9.18,6.29,2.41,1.99,5.5,2.71,8.27,4.01.83.39,1.36-.06,1.63-.82.8-2.22,2.84-3.85,3.06-6.36.04-.39.35-.75.74-.76,1.69-.03,3.37-.86,5.08-.14.17.24.18.49.02.73-.83.45-1.73.6-2.65.66-.24-.02-.45.07-.66.16-.66.27-.98.82-1.22,1.44-.63,1.62-1.5,3.09-2.6,4.45-1.08,1.33-.77,2.28.93,2.67,2.26.52,4.47,1.19,6.66,1.94,1.98.68,2.15,1.27.79,2.88-.17.2-.37.44-.41.68-.39,2.64-2.38,4.21-3.89,6.17-2.82,3.67-5.81,7.21-8.6,10.89-.28.37-.42.86-.63,1.29-.76.24-1.54.16-2.32.1.76-2.14,2.5-3.59,3.77-5.37,1.71-2.41,3.59-4.7,5.39-7.05.89-1.16,1.82-2.26,3.01-3.13.51-.37.96-.88,1.31-1.41,1.48-2.3,1.02-3.81-1.6-4.25-4.61-.77-8.85-2.67-13.26-4.05-2.13-.66-4.01-1.73-5.48-3.54-1.42-1.74-3.58-2.57-5.47-3.67-4.39-2.55-8.68-5.2-12.46-8.64-1.57-1.44-1.81-1.28-2.98.51-.7,1.07-.78,2.35-1.47,3.38-.07.06-.1.12-.1.2,0,.08.01.12.03.12-.78,3.18-2.96,5.46-5.03,7.81-.19.08-.32.21-.36.41-1.33,1.47-2.65,2.94-3.98,4.41-.97.42-1.09-.25-1.18-.94.89-1.55,2.45-2.59,3.21-4.24,1.08-.56,1.43-1.47,1.27-2.63,2.52-1.72,3.71-4.24,4.39-7.1.38-1.59,1.2-3,2.08-4.37.95-1.46,1.68-1.68,3.28-1.05,1.68.67,3.06,1.81,4.43,2.95,1.08.9,2.14,1.82,3.32,2.58,1.04.67,1.79.4,2.46-.56,1.01-1.44,1.09-3.14,1.42-4.77.72-3.63.71-3.44-2.97-3.23-3.39.19-6.76.68-10.15.78-1.59.05-3.07.61-4.62.81-1.11.14-2.24.45-3.3-.21,0-.54,0-1.07,0-1.61.48-.86,1.34-.86,2.13-.84,4.61.08,9.14-.67,13.69-1.21,1.71-.2,3.45-.1,5.17-.39.93-.16,1.41-.57,1.68-1.46,1.55-5.2,1.49-10.55,1.43-15.89,0-.72-.34-1.35-.69-1.97-.95-1.71-1.53-3.57-2.17-5.41-.31-.89-.65-1.88.24-2.71Z"/>
      <path class="cls-6" d="m68.74,55.78c.2.02.4.04.6.06.15.05.26.16.39.24,1.35.71,2.31.24,3.22-.87,1.07-1.29,1.59-2.98,2.88-4.08,2.97-2.54,5.77-5.25,9.37-7.03,4.26-2.1,8.54-4.09,13.24-4.9,1.8-.31,3.24-1.34,4.86-1.84,2.37-.73,4.63-1.7,6.99-2.43,1.24-.38,2.45-.78,3.62-1.36,1.36-.67,2.81-1.09,4.35-1.1,1.66,0,2.86-1.18,4.32-1.68.12.07.25.14.37.21.17.41.37.81.2,1.27-.24.63-.8.85-1.36,1.04-1.38.46-2.76.92-4.18,1.27-4.02,1.01-7.95,2.32-11.66,4.2-.83.42-1.71.64-2.61.86-3.05.75-5.97,1.85-8.87,3.05-2.18.9-4.42,1.64-6.62,2.53-4.52,1.83-8.38,4.46-11.21,8.45-1.58,2.22-3.44,4.13-5.48,5.9-.33.29-.65.58-1.13.55-.26-.08-.43-.26-.57-.48.27-1.26.27-2.45-.9-3.33-.06-.21,0-.39.17-.52Z"/>
      <path class="cls-1" d="m122.88,32.41c.02-.47.04-.94.07-1.41,1.84.46,3.47-.45,5.2-.75l.09.09.07-.11c.59-.03,1.17-.06,1.76-.09.26-.15.58-.05.85-.18.71-.27,1.41-.49,2.19-.5,5.12,0,10.29-.49,15.36.15,4.24.54,8.54.98,12.69,2.14.1-.1.18-.08.24.05.84.15,1.7.49,2.52.43,5.04-.37,9.64,1.62,14.43,2.58.09.09.19.1.29,0,3.4.41,6.41,1.75,9.13,3.79.18.29.16.55-.09.79-.89.4-1.71.07-2.47-.34-4.46-2.41-9.38-3.13-14.28-3.76-2.15-.28-4.26-.66-6.31-1.31-1.45-.46-2.91-.8-4.41-.95-7.71-.78-15.41-1.85-23.19-1.37-3.28.2-6.56.4-9.85.34-.83-.02-1.58.29-2.34.58-.66.26-1.34.48-1.94-.16Z"/>
      <path class="cls-6" d="m273.67,25.61c.52.13,1.04.37,1.57.37,7.25-.03,13,3.82,18.87,7.3,1.68,1,3.46,1.76,5.18,2.65,2.83,1.47,5,3.83,7.64,5.57,3.14,2.05,6.14,4.33,9.19,6.52.25.18.43.47.64.7.34.71.19,1.17-.66,1.26-.66-.46-1.43-.82-1.97-1.39-2.91-3.02-6.96-4.5-9.98-7.36-.46-.43-1.09-.69-1.65-1-4.73-2.65-9.64-5.03-14.14-8.02-4.07-2.72-8.39-3.97-13.15-4.28-1.38-.09-2.75-.43-4.13-.66-.28-.31-.28-.63-.01-.95.25-.22.5-.44.75-.65.6-.59,1.23-.34,1.86-.05Z"/>
      <path class="cls-1" d="m266.86,26.37c-3.9-.56-7.83-.9-11.67.19-3.01.86-6.13.33-9.1,1.06-2.73.66-5.61.25-8.26,1.26-2.2.84-4.49,1.44-6.65,2.41-2.73,1.23-5.61,2.08-8.2,3.66-1.01.62-1.67,1.96-3.14,1.76-.97.2-.94-.31-.67-.97,4.12-2.96,8.64-5.15,13.38-6.89l.1-.12.15.06c.74-.09,1.49-.2,2.23-.28.82-.09,1.59-.29,2.1-1.02.61-.87,1.5-1.18,2.52-1.18,4.9-.02,9.7-1.1,14.58-1.44,4.35-.31,8.71-.63,12.94.83.12.33-.03.53-.31.67Z"/>
      <path class="cls-1" d="m106.01,14.99c-2.6-1.61-5.12-3.38-7.82-4.8-3.27-1.72-6.65-3.42-10.47-3.32-4.26.11-8.5-.33-12.75-.39-3.77-.05-7.39.38-10.89,1.81-.98.4-2.07.55-3.11.82-.24-.23-.53-.15-.8-.13.26-1.1,1.26-1.39,2.09-1.76,3.74-1.67,7.73-2.35,11.78-2.58,4.64-.26,9.27-.07,13.85.73.3.03.61-.04.88.13,1.01.22,2.03.44,3.04.66.06,0,.12.02.19.02,2.87.87,5.86,1.55,8.4,3.16,2.24,1.42,4.2,3.29,6.29,4.96.27.7-.03.86-.66.67Z"/>
      <path class="cls-6" d="m14.04,198.34c.46.24.92.48,1.39.72.65.49.25,1.08.15,1.63-.47,2.55-1.47,4.97-1.8,7.56-.57,4.51-.53,8.99.03,13.53.4,3.19.63,6.44,1.05,9.62.43,3.26-.08,6.56.73,9.78.33,1.33,1.05,2.49,1.37,3.8.08.26.14.53.2.79.08,1.7.61,3.26,1.43,4.75.48.87.77,1.78.47,2.79-.23.6-.4,1.24-1.01,1.59-.32-.32-.55-.74-.5-1.16.24-1.94-.67-3.46-1.54-5.1-1.02-1.91-.94-4.18-1.56-6.24-.02-.16,0-.33-.14-.44-.83-2.52-1.57-5.05-1.34-7.74.38-4.39-.46-8.72-1.03-13.02-.33-2.52-.46-5.01-.61-7.53-.34-5.35,1.72-10.24,2.72-15.32Z"/>
      <path class="cls-1" d="m188.44,306.67c.38.33.49,1,1.18.94-1.16,1.56-2.59,2.88-4.06,4.12-4.44,3.75-9.05,7.31-13.38,11.18-3.18,2.85-6.63,5.3-10.08,7.77-.51.31-.85.8-1.3,1.18-1.18,0-2.36.02-3.54.02-.16-.07-.21-.19-.14-.36.04-.1.08-.2.11-.3.14-.04.22-.14.24-.28l.08-.08c.13-.02.24-.09.31-.2,6.14-3.5,11.57-7.98,17.18-12.24,3.77-2.86,7.2-6.11,10.95-9,.96-.74,1.64-1.82,2.45-2.75Z"/>
      <path class="cls-1" d="m340.35,282.03c.11-1.32.72-2.46,1.28-3.63.32-.67.62-1.38.78-2.11.17-.78-.08-1.31-1.04-1.42-2.56-.31-3.57-1.3-4.09-3.79-.13-.63-.06-1.13.49-1.57.68-.54.77-1.17.2-1.95-1.25-1.71-.76-3.59,1.12-4.48.82-.39,1.72-.62,2.56-.96.65-.26,1.26-.19,1.48.48.27.78-.5.8-.97.96-.91.3-1.9.38-2.72.96-.44.31-.98.55-.91,1.21.07.67.59,1.04,1.13,1.27,1.57.64,3.18.79,4.89.67,2.75-.19,5.22-1.13,7.64-2.32.78-.39,1.63-.55,2.5-.55.6-.13,1.13-.13,1.3.63-.89.65-1.95.81-2.99,1.07-1.81.44-1.84.55-.85,2.17.14.22.22.48.32.72-.28.3-.63.32-1,.26-3.05-1.37-6.26-.76-9.4-.64-1.59.06-3.18,1.9-2.98,2.94.21,1.08,1.53,1.42,3.65.96.83-.18,1.66-.56,2.51-.07.2.22.23.46.05.71-.44.04-.64.31-.75.72-.77,2.66-2.39,4.93-3.49,7.44-.16.28-.33.55-.72.34Z"/>
      <path class="cls-3" d="m277.22,263.15c-.11-.28-.22-.57-.33-.85.24-.38.62-.4,1-.37,2.77.2,5.23-1.05,7.81-1.69.7-.17,1.37-.28,2.06-.24,3.68.24,7.19-.52,10.66-1.67,2.96-.99,5.78-2.32,8.66-3.47.92-.37,1.75-.86,2.54-1.39,2.92-1.99,6.01-3.72,8.7-6.05.61-.53.85-1.4,1.67-1.7.39-.04.75,0,1,.34-2.57,3.26-5.84,5.65-9.47,7.59-1.14.6-2.33,1.09-3.2,2.11-.13.16-.32.3-.52.38-5.34,1.96-10.56,4.34-16.36,4.75l-.14-.06s-.13.07-.13.07c-.8.14-1.6.28-2.4.42l-.15.03c-1.52.6-3.12.46-4.69.51h-.16c-1.62-.18-3.02.96-4.64.81-.08.05-.17.09-.27.1-.55.13-1.11.26-1.66.39Z"/>
      <path class="cls-1" d="m343.32,70.73c.51-.32.32-.83.37-1.28,3.46,1.79,7.08,3.36,9.98,6.05,1.17,1.09,2.05,2.49,3.08,3.73,3.83,4.59,7.54,9.28,11.04,14.13-.7,0-1.39.02-2.09.02-1.53-1.53-2.75-3.33-3.96-5.09-1.78-2.6-3.9-4.89-5.94-7.25-.35-.41-.72-.8-.99-1.27-1.65-2.86-4.21-4.74-7-6.28-1.16-.64-2.53-.89-3.64-1.69-.39-.28-.91-.43-.83-1.06Z"/>
      <path class="cls-1" d="m51.2,17.79c.27,2.11-.96,3.93-1.11,5.98-.08,1.19-.19,2.32.07,3.51.33,1.52.5,3.07.76,4.6.3,1.75.72,3.38,1.96,4.84,1.62,1.91,2.97,4.05,4.69,5.91.66.71,1.18,1.53,1.54,2.45.08.29.14.57-.12.8-2.71-3.09-5.5-6.12-8.1-9.3-2.27-2.77-1.59-6.34-2.16-9.56-.27-1.53.02-3.1.41-4.62,0-.12.04-.22.12-.31.05-.55.09-1.1.14-1.65.07-.11.11-.24.11-.37.23-1.01.8-1.77,1.71-2.27Z"/>
      <path class="cls-1" d="m338.17,217.52c.03-.43-.07-.94.12-1.27,2.29-3.97,1.96-8.84,4.26-12.76,1.53-2.61,2.38-5.58,4.18-7.96,1.01-1.33,1.91-3.09,3.81-3.6-1.78,2.67-2.69,5.82-4.59,8.44-.95,1.3-1.56,2.81-2.01,4.37-.49,1.7-1.1,3.36-2.07,4.87-.26.4-.44.87-.54,1.34-.49,2.41-1.59,4.54-2.97,6.55-.03.05-.05.1-.08.15-.04-.04-.08-.09-.11-.13Z"/>
      <path class="cls-1" d="m316.1,49.98c.42-.32.61-.75.66-1.27,1.74,1,2.88.93,4.17-.47,1.48-1.61,3.3-2.75,5.14-3.85,1.63-.97,2.74-2.24,3.56-3.98.79-1.68,2.01-3.15,3.05-4.72.27-.19.54-.23.8.01-1.85,3.61-3.89,7.1-6.56,10.18-.36.42-.83.65-1.32.9-1.91.99-3.72,2.12-5.38,3.49-.07.3-.04.6-.04.91.29.99.84,1.84,1.48,2.64.23.47.35.9-.36,1.05-1.73-1.64-3.47-3.27-5.2-4.91Z"/>
      <path class="cls-1" d="m321,246.05c-.36-.03-.76.05-1-.34,2.07-2.24,4.14-4.49,5.52-7.24.96-1.92,1.61-3.97,2.79-5.8,2.63-4.11,5.14-8.31,7.72-12.45.61-.97.83-2.27,2.14-2.69h0c.08.07.11.14.09.21-.02.07-.04.11-.07.11-.55,1.83-1.63,3.42-2.74,4.9-1.3,1.74-2.2,3.69-3.35,5.49-1.9,2.95-3.07,6.28-4.87,9.26-1.83,3.02-3.72,6.03-6.24,8.57Z"/>
      <path class="cls-6" d="m203.02,49.65c-.78.92-.58,1.77-.04,2.79,1.42,2.7,2.91,5.35,3.84,8.32,1.01,3.2,2.61,6.2,3.96,9.29-.29.36-.68.46-1.12.45-.74-.29-.97-.99-1.23-1.62-1.61-3.99-3.45-7.88-5.09-11.86-.62-1.5-1.34-2.92-2.31-4.24-.67-.91-1.2-1.92-1.24-3.1.18-.63.62-.97,1.24-1.12.42.06.85.12,1.27.19.34.21.83.31.71.89Z"/>
      <path class="cls-1" d="m359.24,251.25c-.43,0-.86,0-1.29-.01-.21.18-.43.18-.65.01-3.06.43-6.13.64-9.14,1.48-2.28.64-4.53-.11-6.61-1.2-.41-.22-.43-.58-.53-.92-.15-.48-.29-.97.16-1.38,2.09,2.74,4.99,2.61,7.9,2.07,3.38-.63,6.73-1.4,10.2-1.34,2.7.04,3.92.92,4.87,3.55-.26.33-.61.4-1,.36-.12-.22-.25-.44-.37-.66-.25-.39-.61-.68-.91-1.01-.32-.43-.77-.61-1.28-.68-.4-.29-.93.03-1.33-.27Z"/>
      <path class="cls-1" d="m297.97,2.65c-3.74,1.88-7.63,3.29-11.76,4.06-2.33.43-3.91,2.37-6.08,3.16-.32-.35-.24-.7,0-1.04,1.66-1.94,3.73-3.17,6.23-3.73,3.97-.89,7.7-2.58,11.61-3.68.39.41.31.82,0,1.24Z"/>
      <path class="cls-3" d="m203.02,49.65c-.17-.35-.72-.4-.71-.89,2.85-1.76,5.14-4.18,7.64-6.36,2.86-2.49,6.02-4.6,9.21-6.65-.02.49.06.92.67.97-2.49,1.83-4.92,3.77-7.49,5.44-3.09,2.01-5.5,4.71-8.36,6.92-.3.23-.64.38-.97.57Z"/>
      <path class="cls-1" d="m318.7,3.25c-3.61-.8-7.28-.95-10.95-1.11-.19-.7-1.1-1.15-.69-2.04,2.3-.03,4.6-.28,6.89.13,1.76.32,3.37,1,4.82,2.04.2.34.25.67-.06.98Z"/>
      <path class="cls-3" d="m201.04,48.57c-.16.58-.8.65-1.11,1.08-.61-.06-.94-.55-1.22-.97-2.48-3.71-6.31-5.7-9.94-7.98-.48-.3-1.32-.38-1.04-1.31,0-.26.02-.52.02-.79,4.35,1.72,8.06,4.42,11.49,7.53.76.69,1.33,1.53,1.8,2.44Z"/>
      <path class="cls-3" d="m106.01,14.99c.42-.03.65-.25.66-.67,1.03.93,2.23,1.51,3.53,2.04,2.78,1.13,4.66,3.43,6.37,5.79.86,1.19,2.21,2.13,2.29,3.8-1.85-.15-2.42-1.88-3.32-3-1.8-2.22-3.34-4.5-6.33-5.37-1.26-.37-2.25-1.58-3.2-2.6Z"/>
      <path class="cls-3" d="m339.76,68.47c.54-.14.91-.39.18-.76-1.89-.97-3.78-1.95-5.73-2.76-.59-.25-1.25-.43-1.7-.84-1.72-1.54-3.64-2.79-5.49-4.15-.69-.51-1.57-1.05-1.49-2.17.32.19.69.32.96.56,4.04,3.46,8.79,5.76,13.47,8.16.64.33,1.15.79,1.51,1.41-.25,1.17-.96.91-1.71.54Z"/>
      <path class="cls-1" d="m335.25,25.33c-1.29-1.42-1.37-3.15-1.27-4.93.12-2.21-.5-4.2-1.69-6.08-.71-1.12-1.2-2.37-2.08-3.4-.24-.28-.21-.59.13-.82,1.37,1.03,2.34,2.37,2.86,4,.4,1.24,1.19,2.28,1.69,3.46,1.12,2.6,1.12,5.33.95,8.08-.31.11-.47-.04-.58-.3Z"/>
      <path class="cls-6" d="m307.05.1c-.15.81,1.38,1.05.69,2.04-3.22.88-6.51.34-9.77.5,0-.41,0-.82,0-1.24,2.97-.82,5.97-1.4,9.07-1.31Z"/>
      <path class="cls-3" d="m280.14,8.82c0,.35,0,.69,0,1.04-.15.88-.9,1.32-1.47,1.84-2.94,2.72-4.67,6.08-5.38,10-.03.14-.18.26-.27.38-.31.26-.62.27-.93,0-.07-1.03.34-1.99.48-2.99.01-.06.03-.13.04-.19.46-1.96,1.33-3.71,2.68-5.22,1.53-1.71,3.06-3.43,4.85-4.88Z"/>
      <path class="cls-3" d="m341.17,249.23c-.05.46-.1.92-.16,1.38-1.54-1.75-3.17-3.44-4.6-5.28-.8-1.03-1.91-1.82-2.38-3.15-.24-.7-1-.99-1.86-1.01-.93-.02-1.93.35-2.78-.34.2-.46.5-.81,1.01-.94.07-.1.16-.15.29-.14,2.56-.36,3.2-.15,4.28,2.03,1.19,2.42,3.08,4.2,4.96,6.02.45.44.83.96,1.24,1.44Z"/>
      <path class="cls-1" d="m18.05,254.89c.24-.58.29-1.26.8-1.72.72.04.71.71.97,1.13,1.82,3,3.03,6.42,5.94,8.68.46.36.81.86.81,1.51-.02.25-.09.48-.29.65-2.16-1.37-3.99-3.01-5.11-5.4-.56-1.2-1.49-2.23-2.23-3.34-.33-.49-.78-.9-.88-1.52Z"/>
      <path class="cls-3" d="m58.98,45.88c.04-.27.08-.54.12-.8,1.56,2,3.17,3.96,4.67,6.01,1.32,1.81,3.29,3.15,4.97,4.7-.06.17-.12.35-.17.52-3.38-1.92-5.74-4.96-8.39-7.67-.74-.75-.77-1.85-1.19-2.77Z"/>
      <path class="cls-3" d="m335,317.68c.16.1.32.2.48.31-2.61,3.3-3.92,7.54-7.33,10.27.31-2.31,1.99-3.88,3.17-5.7,1.11-1.7,2.45-3.25,3.68-4.87Z"/>
      <path class="cls-1" d="m369.63,164.68c.61-1.13,1.38-1.39,2.36-.42-1.4,2.57-3.48,4.36-6.21,5.4.24-.86-.9-2.4,1.16-2.37,1.18-.58,2.17-1.35,2.69-2.61Z"/>
      <path class="cls-1" d="m350.5,191.95c.14-.55.07-1.14.55-1.63,1.9-1.94,3.15-4.33,4.42-6.69.55-1.01,1.16-1.95,2.45-2.1-2.16,3.69-4.23,7.46-7.42,10.41Z"/>
      <path class="cls-3" d="m363.13,253.87c.22-.42.63-.34,1-.36.62.86.15,1.51-.44,2.11-.83.85-1.94,1.1-3.02,1.46-1.82.6-3.6,1.31-4.87,2.88-.51-.03-.94-.18-1.13-.72,1.68-1.26,3.44-2.29,5.5-2.9,1.23-.36,2.52-.99,2.96-2.47Z"/>
      <path class="cls-3" d="m345.32,273.54c.02-.25.04-.51.06-.76.84-1.22,2.28-1.02,3.45-1.31,1.31-.32,2.23-.83,2.66-2.1.33,0,.67,0,1,0,.57,1.24.5,1.99-1.01,2.69-2,.92-3.96,1.58-6.16,1.47Z"/>
      <path class="cls-3" d="m335.25,25.33c.19.1.39.2.58.3.47,3.66-.11,7.06-2.36,10.08-.27,0-.54,0-.8-.01,1.73-2.48,2.28-5.32,2.6-8.25.08-.73-.5-1.42-.01-2.12Z"/>
      <path class="cls-1" d="m69.46,59.64c.2.14.4.29.59.43.1.12.25.27.21.41-.7,2.47-1.39,4.95-2.72,7.18-.37.11-.71.09-.99-.2.63-2.74,1.29-5.46,2.91-7.83Z"/>
      <path class="cls-3" d="m59.88,8.93c.27.14.45.4.29.65-1.51,2.38-3.57,4.03-6.34,4.73,1.53-2.34,4.23-3.37,6.05-5.38Z"/>
      <path class="cls-1" d="m327.51,8.43c-.51-.29-.95-.72-1.6-.68-.16-.05-.27-.15-.33-.3-.8-.66-1.92-.78-2.62-1.59-.44-.73.14-.96.61-1.25,1.87,1.05,3.88,1.9,5.09,3.83-.28.02-.57.04-.85.06-.12.1-.22.08-.3-.06Z"/>
      <path class="cls-6" d="m354.68,259.24c.51.03.79.42,1.13.72.4.43.81.85,1.22,1.28.24.5.1.88-.38,1.14-.75-.58-1.69-.63-2.55-.93-.47-.16-1.2-.07-1.25-.79-.04-.59.64-.64,1-.93.25-.2.55-.33.83-.49Z"/>
      <path class="cls-3" d="m323.57,4.61c.08.55-.7.69-.61,1.25-1.42-.87-2.84-1.74-4.27-2.61.02-.33.04-.66.06-.98,1.75.47,3.26,1.45,4.81,2.34Z"/>
      <path class="cls-3" d="m327.57,268.43c-.11-.33,0-.74-.35-.99.46-1.65,1.21-3.21,1.46-4.92.01-.07.02-.14.03-.22.08-.41.16-.82.24-1.23.47.09.32.53.45.82.19,2.4-.75,4.49-1.83,6.54Z"/>
      <path class="cls-1" d="m376.1,159.35c-.08-.88.05-1.67.94-2.12.74.12,1.14-.33,1.48-.88.26-.42.39-1.02,1.1-.84.13.1.21.22.25.38.13.61-.43,1.04-.42,1.62-.95.92-1.77,2.09-3.36,1.84Z"/>
      <path class="cls-1" d="m329.4,261.9c-.15-.27-.3-.55-.45-.82.07-.39.14-.77.22-1.16l.1-.1-.04-.13c.1-1.01.21-2.02.31-3.03.07-.14.04-.31.13-.45.1-.3.21-.59.31-.89,1.01.36.79,1.26.66,1.92-.32,1.57-.81,3.11-1.23,4.66Z"/>
      <path class="cls-3" d="m356.64,262.37c.13-.38.25-.76.38-1.14,1.82,1.63,1.62,2.45-1.02,4.19-.35-.38-.82-.52-1.3-.63,1.03-.5,2.34-.78,1.94-2.42Z"/>
      <path class="cls-1" d="m329.01,245.09c1.02.91,1.39,2.15,1.66,3.41.1.46,0,.97-.6,1.12-.61-1.45-.84-2.99-1.06-4.53Z"/>
      <path class="cls-3" d="m266.86,26.37c.1-.22.21-.45.31-.67,1.28.31,2.57.59,3.89.62,0,.32,0,.63.01.95-1.5.16-2.89-.2-4.21-.89Z"/>
      <path class="cls-3" d="m326.56,331.89c.11-1.42.92-2.52,1.6-3.69-.02.74-.15,1.49-.04,2.21.18,1.31-.31,1.76-1.56,1.48Z"/>
      <path class="cls-1" d="m359.6,180.27c-.35-1.62,1.12-2.06,1.92-2.93.01.28.09.52.36.66-.59.92-1.41,1.62-2.28,2.27Z"/>
      <path class="cls-3" d="m66.55,67.46c.29,0,.58-.01.87-.02.65.88.67,1.75,0,2.63-.3,0-.61-.01-.91-.02.01-.86.03-1.73.04-2.59Z"/>
      <path class="cls-6" d="m272.08,22.09c.31,0,.62,0,.93,0,0,.86,0,1.73,0,2.59-.37.3-.73.3-1.08-.02.05-.86.11-1.72.16-2.58Z"/>
      <path class="cls-3" d="m272.99,330.01c.02.44.28.63.69.69,0,.39-.02.78-.03,1.17-.66,0-1.33.01-1.99.02.58-.53.53-1.5,1.34-1.87Z"/>
      <path class="cls-3" d="m321.3,54.89c.37-.26.32-.67.35-1.05.85.43,1.41,1.13,1.85,1.95-.9.1-1.73.03-2.2-.9Z"/>
      <path class="cls-3" d="m340.35,282.03c.24-.11.48-.23.72-.34-.24.67-.47,1.34-.71,2.01-.3-.03-.6-.06-.9-.08.06-.66.08-1.35.9-1.58Z"/>
      <path class="cls-3" d="m271.92,24.66c.36,0,.72.01,1.08.02.22.31.44.62.66.93-.62.02-1.24.03-1.86.05,0-.24,0-.49,0-.73l.09-.1-.08-.11.12-.05Z"/>
      <path class="cls-3" d="m26.28,265.16c.03-.23.05-.46.08-.68,1.17-.36,1.42.19,1.21,1.21-.04.21-.07.42-.11.62-.39-.38-.78-.76-1.17-1.15Z"/>
      <path class="cls-6" d="m379.46,157.51c-.26-.67.12-1.25.24-1.87.33-.3.66-.3.99,0,0,.53-.24.95-.65,1.28-.15.1-.3.19-.37.37-.07.07-.14.14-.21.21Z"/>
      <path class="cls-3" d="m160.79,331.86c.02-.85.43-1.28,1.3-1.18-.13.38-.27.75-.4,1.13-.3.02-.6.03-.9.05Z"/>
      <path class="cls-1" d="m380.69,155.65c-.33,0-.66,0-.99,0,0,0-.02-.02-.02-.02-.34-.42-.36-.85-.03-1.29.41.1.81.21,1.22.31,0,.22-.01.44-.02.67-.05.12-.09.24-.13.36,0,0-.03-.02-.03-.02Z"/>
      <path class="cls-1" d="m329.42,9.17c-.08.18,0,.61-.4.33-.31-.22-.28-.5.05-.72.11.13.23.26.34.39Z"/>
      <path class="cls-4" d="m130.92,29.95c-.23.31-.53.3-.85.18.24-.25.53-.29.85-.18Z"/>
      <path class="cls-4" d="m320.18,51.2c-.33-.32-.35-.62.04-.91-.01.3-.03.61-.04.91Z"/>
      <path class="cls-4" d="m88.76,5.51c-.31.07-.62.1-.88-.13.33-.21.62-.11.88.13Z"/>
      <path class="cls-4" d="m329.66,256.21c.1.19.12.36-.13.45-.12-.2-.11-.36.13-.45Z"/>
      <path class="cls-4" d="m14.31,241.95c.15.12.31.23.14.44-.25-.08-.22-.26-.14-.44Z"/>
      <path class="cls-2" d="m4.32,322.22c.26.22.25.43-.03.63,0-.21.02-.42.03-.63Z"/>
      <path class="cls-3" d="m60.16,8.99c.3-.14.57-.15.8.13-.25-.02-.49-.03-.74-.05,0,0-.06-.08-.06-.08Z"/>
      <path class="cls-3" d="m157.11,331.52c.05.12.1.24.14.36-.18,0-.37,0-.55,0,.14-.12.27-.24.4-.35Z"/>
      <path class="cls-4" d="m232.79,28.79c-.08.02-.17.04-.25.06.08-.02.17-.04.25-.06Z"/>
      <polygon class="cls-4" points="128.31 30.22 128.23 30.32 128.14 30.24 128.22 30.17 128.31 30.22"/>
      <path class="cls-4" d="m329.22,259.69c.02.06.04.12.05.19,0,.01-.06.03-.1.05-.02-.07-.04-.13-.04-.19,0-.01.06-.03.1-.04Z"/>
      <path class="cls-2" d="m291.19,260.89c.08-.14.17-.17.27-.01,0,0-.13.06-.13.06l-.14-.04Z"/>
      <polygon class="cls-4" points="288.64 261.34 288.7 261.26 288.79 261.31 288.72 261.38 288.64 261.34"/>
      <polygon class="cls-4" points="15.82 187.46 15.87 187.59 15.76 187.67 15.7 187.55 15.82 187.46"/>
      <polygon class="cls-4" points="283.79 261.86 283.87 261.75 283.95 261.85 283.87 261.91 283.79 261.86"/>
      <polygon class="cls-4" points="328.71 262.31 328.77 262.43 328.68 262.53 328.61 262.41 328.71 262.31"/>
      <path class="cls-4" d="m278.88,262.76c.04-.17.13-.19.27-.1-.05.15-.13.19-.27.1Z"/>
      <polygon class="cls-4" points="15.53 188.44 15.57 188.58 15.47 188.67 15.42 188.53 15.53 188.44"/>
      <polygon class="cls-4" points="17.17 181.31 17.23 181.42 17.15 181.51 17.09 181.41 17.17 181.31"/>
      <polygon class="cls-4" points="272.6 18.91 272.65 19.02 272.56 19.1 272.5 19 272.6 18.91"/>
      <path class="cls-4" d="m18.04,176.42c0,.07.01.13,0,.2,0,0-.07,0-.11.01,0-.07-.01-.14,0-.2,0,0,.07,0,.11-.01Z"/>
      <path class="cls-1" d="m51.28,17.57c-.03.11-.07.21-.1.32.04-.11.07-.21.1-.32Z"/>
      <path class="cls-2" d="m178.63,34.8c-.1.18-.2.14-.29,0,.1-.08.19-.08.29,0Z"/>
      <path class="cls-3" d="m53.83,14.32c-.08.1-.16.2-.24.3.08-.1.16-.2.24-.3Z"/>
      <path class="cls-2" d="m362.33,171.17c-.29-.14-.24-.24.04-.32-.01.11-.02.21-.04.32Z"/>
      <polygon class="cls-4" points="14.56 194.28 14.62 194.37 14.55 194.44 14.47 194.36 14.56 194.28"/>
      <path class="cls-4" d="m316.46,276.31c-.12.02-.23.05-.35.07.08-.24.2-.23.35-.07Z"/>
      <path class="cls-4" d="m14.48,195.55c.03.06.05.13.08.19-.04.01-.07.03-.11.04-.03-.06-.05-.13-.08-.19.04-.01.08-.03.11-.04Z"/>
      <path class="cls-2" d="m19.19,170.89c.02.06.05.12.07.19,0,.02-.06.04-.09.06-.07-.09-.06-.17.03-.25Z"/>
      <path class="cls-2" d="m321.62,280.23c-.08.18-.18.19-.28.02.09-.11.18-.12.28-.02Z"/>
      <path class="cls-4" d="m21.2,166.63c-.03.08-.07.16-.1.24.03-.08.07-.16.1-.24Z"/>
      <path class="cls-1" d="m379.67,157.3c.12-.12.25-.25.37-.37-.12.12-.25.25-.37.37Z"/>
      <path class="cls-2" d="m338.2,217.85c0-.11-.01-.21-.02-.32l.08-.07s.1.04.1.04c.07.18.01.29-.16.35Z"/>
      <path class="cls-3" d="m380.72,155.67c-.08-.17-.04-.29.13-.36.09.17.04.29-.13.36Z"/>
      <path class="cls-4" d="m27.4,143.34c0,.06.02.12.01.18,0,0-.07.01-.1.02,0-.06-.01-.13-.02-.19.04,0,.07,0,.11,0Z"/>
      <polygon class="cls-4" points="91.99 6.19 91.88 6.26 91.8 6.17 91.9 6.11 91.99 6.19"/>
      <path class="cls-4" d="m65.95,72.35c.02.06.04.12.05.18,0,0-.07.02-.1.03,0,0-.06-.13-.06-.13l.11-.08Z"/>
      <path class="cls-4" d="m63.74,88.22c.02.08.06.16.07.24,0,.02-.07.05-.1.07-.03-.08-.06-.16-.08-.24,0-.02.07-.05.11-.07Z"/>
      <polygon class="cls-4" points="345.33 302.99 345.29 302.9 345.37 302.83 345.44 302.92 345.33 302.99"/>
      <polygon class="cls-4" points="271.8 24.71 271.89 24.82 271.8 24.93 271.72 24.82 271.8 24.71"/>
      <path class="cls-2" d="m49.49,20.06c.12.17.07.29-.11.37-.1-.16-.08-.29.11-.37Z"/>
      <path class="cls-2" d="m330.69,239.74c-.1.05-.19.09-.29.14.1-.05.19-.09.29-.14Z"/>
      <path class="cls-2" d="m49.24,22.08c.08.15.06.26-.12.31-.11-.16-.02-.25.12-.31Z"/>
      <polygon class="cls-4" points="377.38 96.09 377.26 96.16 377.17 96.04 377.3 95.98 377.38 96.09"/>
      <polygon class="cls-4" points="161.4 31.79 161.26 31.84 161.15 31.74 161.29 31.69 161.4 31.79"/>
      <path class="cls-3" d="m297.56,248.93c-1.05.24-1.38,1.19-1.8,1.95-1.59,2.89-4.41,4.18-7.24,5.05-1.96.61-3.96,1.31-6.05,1.63-2.8.44-5.59.94-8.43,1.1-2.25.13-4.52-.23-6.74.53-.9.31-1.81-.14-2.64-.5-2.9-1.25-5.85-1.26-8.99-1.15-4.18.14-8.01,1.52-11.99,2.33-1.3.26-2.71-.3-3.93.6-.34.25-.69-.2-.93-.48-1.02-1.21-2.4-1.69-3.85-2.22-2.9-1.07-5.88-1.93-8.51-3.77-1.89-1.33-4.04-2.37-6.55-2.56-2.15-.17-3.4-2.14-5-3.37-1.1-.85-1.78-2.18-3.15-2.71-2.95-1.71-4.76-4.33-5.83-7.47-1.75-5.16-2.75-10.5-2.03-15.92.52-3.92,1.4-7.83,3.49-11.34,2-3.36,3.18-7.11,4.39-10.78,1.21-3.69,2.92-7.06,4.77-10.42.4-.51.65-1.17,1.35-1.39,1.76-1.57,3.04-3.63,5.05-4.94,1.9-1.25,3.54-2.84,5.68-3.82,1.61-.73,3.06-1.93,4.57-2.93,4.3-2.86,8.96-4.49,14.12-4.54,5.12-.05,10.24.04,15.36-.02,1.42-.02,2.76.45,4.17.36,1.79-.41,3.09.53,4.28,1.63,1.33,1.22,2.61,2.51,3.83,3.84,3.87,1.5,7.57,3.38,11.31,5.18,2.13,1.03,4.23,2.13,6.52,2.79.4.12.86.26,1.15.54,2.83,2.69,5.21,5.6,6.6,9.41,1.27,3.49,1.77,7.06,2.34,10.65.16,1,.68,1.94.87,2.94.87,4.53,1.79,9.07,2.48,13.6.67,4.39.4,8.94-1.02,13.42-1.45,4.59-4.3,8.13-7.07,11.82-.22.3-.39.63-.58.95Z"/>
      <path class="cls-2" d="m131.35,90.95c-.24,0-.49,0-.73,0-1.39.44-2.87.17-4.26.54-2.05.2-4.08.19-6.13-.08-4.71-.6-9.42-1.1-14.18-.5-2.76.35-5.47-.46-8.21-.62-4.62-.28-9.26-.46-13.84-1.22-.18-.03-.36-.07-.54-.13-.17-.04-.34-.11-.5-.18-.31-.16-.62-.32-.75-.68.72-2.47,1.96-4.7,3.89-6.35,5.65-4.84,12.14-8.28,19.01-11.07.85-.35,1.79-.37,2.65-.72,3.14-1.63,6.59-2.45,9.89-3.55,5.88-1.95,11.94-3.34,18.26-2.95,2.64.16,5.28-.17,7.92-.27,5.61-.2,11.22.27,16.82.66,1.3.09,2.51.61,3.8.82,2.82.46,5.58,1.24,8.49,1.14,1.28-.04,2.55.39,3.77.87,9.11,3.53,18.25,6.97,27.06,11.2,1.94.93,4.06,1.36,5.93,2.55,2.73,1.73,5.16,3.69,7.11,6.29,1.14,1.52,2.88,2.44,4.19,3.81.55.58,1.21,1.1,1.36,1.97.26.4.53.81.79,1.21.14.23.17.45-.04.66-2-.74-4.04.04-6.09-.22-5.77-.71-11.58-1-17.35-1.73-2.37-.3-4.68-1.21-6.95-2.04-3.19-1.16-6.51-1.49-9.82-1.77-7.38-.64-14.78-.46-22.17-.29-3.81.09-7.61.54-11.4,1.12-5.58.84-11.16,1.93-16.86,1.43-.26-.02-.54.05-.8.08,0,0-.14,0-.14,0l-.13.03Z"/>
      <path class="cls-2" d="m343.32,70.73c1.26.76,2.53,1.46,3.91,2.05,1.94.82,4.08,1.8,5.33,3.47,2.7,3.6,5.99,6.73,8.52,10.44,1.53,2.24,3.65,4.07,4.61,6.69-2.83-.37-5.64-.24-8.49-.08-2.65.15-5.34-.33-8.01-.5-.75-.05-1.5.03-2.25.05-.76.5-1.61.27-2.43.35-.15.01-.31.03-.46.05-.14.05-.28.08-.42.11-.48.09-.91.29-1.27.64-5.18.74-10.37,1.28-15.61,1.32-1.9.01-3.75-.23-5.63-.46-2.57-.31-5.15.27-7.74.28-.59,0-1.18.13-1.77.15-5.39.13-10.8.1-16.18.43-3.4.21-6.76.14-10.15,0-5.16-.2-10.34-.08-15.51-.09-.54-.56-.83-1.16-.34-1.9,3.52-1.87,6.88-4.19,10.6-5.5,6.51-2.29,12.29-6,18.49-8.85,5.9-2.71,11.87-5.05,18.12-6.79,2.16-.6,4.2-1.66,6.29-2.54,1.56-.66,3.17-.93,4.87-.97,4.55-.09,9.05.05,13.42,1.48.64.21,1.39.12,2.09.17Z"/>
      <path class="cls-7" d="m168.06,130.42c2.02,2.11,4.05,4.22,6.07,6.32,2.05,1.69,4.04,3.45,5.55,5.68,2.07,2.12,4.14,4.25,6.22,6.36,7.61,7.73,15.42,15.26,22.88,23.14,3.52,3.73,5.57,8.14,6.39,13.16.05.31-.01.64-.02.96-.07.78-.74,1.02-1.27,1.32-2.06,1.17-4.24,2.04-6.56,2.56-.81.07-1.33-.4-1.72-1.01-6.46-10.04-15.58-17.68-23.77-26.15-4.12-4.27-8.38-8.41-12.58-12.6-2.98-2.97-5.82-6.06-8.6-9.22-.47-.53-1.02-.96-1.55-1.42-2.42-2.81-5.17-5.3-7.64-8.07-2.82-3.16-5.57-6.39-8.37-9.57-.85-.97-1.81-1.83-2.61-2.85-4.93-5.5-9.12-11.56-13.59-17.41-.78-1.03-1.59-2.03-2.22-3.17-1.61-2.96-.87-5.34,2.18-6.96.64-.18,1.29-.16,1.95-.14.17,0,.33.04.49.08.35.08.54.35.74.61,2.11,1.74,4.57,3.28,6.21,5.34,3.78,4.75,8.76,8.27,12.55,12.95.27.33.61.59.92.89,1.93,1.39,3.41,3.24,4.9,5.06,3.3,4.02,7.36,7.27,10.99,10.96.94.96,1.86,1.94,2.48,3.15Z"/>
      <path class="cls-7" d="m304.04,127.66c-3.54-3.84-7.04-7.7-10.34-11.75-4.43-5.44-7.47-11.63-10.23-18,.11-.19.07-.4.13-.6,3.27.28,6.56.08,9.83.5.79.1,1.28.4,1.54,1.16.31.89,1.01,1.51,1.57,2.23,6.7,8.55,14.69,15.88,22.27,23.59.75.77,1.51,1.53,2.26,2.3,2.84,2.23,5.21,4.91,7.37,7.79,4.29,4.55,8.6,9.08,12.87,13.65,4.27,4.58,8.38,9.28,11.64,14.67,1.13,1.87,1.95,3.85,2.3,5.99.26,1.55.46,3.3-1.09,4.28-1.56.98-3.33,1.13-5.06.13-1.88-1.08-3.59-2.39-5.14-3.89-3.93-3.79-7.31-8.08-11.05-12.04-4.64-4.89-9.28-9.78-13.91-14.67-2.95-2.28-5.46-5.05-7.98-7.76-1.95-2.09-3.97-4.11-5.94-6.17-.4-.42-.94-.75-1.04-1.4Z"/>
      <path class="cls-7" d="m200.81,124.83c5.88,6.84,12.19,13.28,18.49,19.73,2.79,2.86,5.35,5.94,7.74,9.14,1.45,1.93,2.4,4.07,2.68,6.49.34,2.88-1.67,4.68-4.47,3.95-3.27-.85-5.95-2.71-8.47-4.87-6.67-5.72-12.23-12.49-17.94-19.11-4.47-5.19-8.4-10.81-12.38-16.38-.71-.28-1-.95-1.37-1.52-1.14-1.75-2.32-3.48-3.34-5.3-1.07-1.9-.6-3.83,1.1-5.09,2.74-1.48,4.22-1.25,6.42.98.64.65,1.27,1.29,1.91,1.94,1.08.21,1.37,1.27,2.05,1.92,2.23,2.15,4.41,4.36,6.59,6.57.43.44,1.04.8.99,1.56Z"/>
      <path class="cls-1" d="m304.04,127.66c5.19,4.91,10.03,10.17,14.96,15.33-3.59,2.27-6.18,5.29-7.73,9.32-.98,2.54-2.36,4.94-3.68,7.34-.81,1.48-1.87,1.48-3.14.35-3.6-3.18-6.98-6.52-9.67-10.56-1.7-2.56-4.56-3.03-7.41-3.2-.96-.05-1.64-.48-2.15-1.21-1.79-2.62-3.89-5.01-5.52-7.75-.82-1.38-.72-1.83.82-2.36,2.58-.89,5.22-1.58,7.93-1.97,1.43-.21,2.66-.8,3.86-1.53,3.05-1.88,6.63-2.03,9.95-3.04.61-.19,1.2-.47,1.8-.71Z"/>
      <path class="cls-1" d="m182.86,111.86c-1.5,2-1.58,3.95-.07,6.06,1.34,1.87,2.46,3.9,3.68,5.86-1.44,1.47-3.25,1.91-5.25,2.05-4.18.28-8.1,1.4-11.54,3.91-.49.36-1.01.61-1.62.69-6.22-6.3-12.76-12.28-18.36-19.17.89-2.24,2.77-2.61,4.79-2.25,2.04.36,4.07.25,6.1.27,3.45.04,6.89,0,10.34.01,2.79,0,5.53.6,8.26,1.08,1.25.22,2.39,1.15,3.68,1.51Z"/>
      <path class="cls-1" d="m200.81,124.83c-3.21-3.34-6.69-6.43-9.62-10.05.03-1.09.85-1.53,1.67-1.71,1.17-.25,2.31-.59,3.61-.35,2,.38,4.06.03,6.11.4,3.89.7,7.86.81,11.72,1.84,1.56.42,3.28.42,4.91.75,2.48.49,4.91,1.17,7.29,2.01,1.05.37,1.57,1.05,1.25,2.38-1.1,4.63-2.64,9.08-4.64,13.39-.41.88-.62,1.84-1.06,2.7-.59,1.16-1.26,1.2-1.98.12-.91-1.38-1.87-2.77-2.53-4.27-1.28-2.91-3.55-4.65-6.35-5.81-1.99-.82-4.02-1.52-6.05-2.24-1.04-.37-2.06-.52-2.98.4-.33.33-.83.5-1.35.44Z"/>
      <path class="cls-1" d="m274.95,177.64c-1.03-.11-1.48-1-2.09-1.63-1.71-1.76-3.39-3.53-6.02-3.83,0-.66,0-1.32,0-1.98-1.58-2.2-3.87-3-6.41-3.62-2.12-.52-4.1-1.59-6.09-2.53-2.24-1.06-4.54-1.96-6.84-2.87-1.46-.58-2.69-.64-3.35,1.21-.23.64-.63,1.42-1.6,1.34-.53-2.64-2.28-4.35-4.36-5.84-.67-.48-.69-1.13-.17-1.82,3.17-4.19,5.1-8.98,6.91-13.87.66-1.78,1.09-3.68,2.18-5.29.78-1.14,1.47-.94,2.25.07.71.93.79,2.07,1.25,3.07.45,1.63-.34,3.07-.86,4.47-1.46,3.91-1.75,8.12-3.28,11.99-.27.69.1,1.12.71,1.41,4.61,2.24,9.49,3.83,14.12,6.02.19.09.41.13.7-.04.11-1.18-1.49-1.84-1.11-3.13.54-1.04,1.25-.53,1.91-.19,1.57.83,2.62,2.27,3.56,3.65,2.19,3.21,4.12,6.59,6.55,9.64.89,1.12,1.8,2.27,2.04,3.76Z"/>
      <path class="cls-1" d="m222.32,92.47c-2.4-2.67-5.36-4.74-7.68-7.55-2.67-3.25-6.44-5.05-10.41-6.47-5.02-1.79-9.69-4.43-14.67-6.35-3.11-1.2-6.21-2.4-9.37-3.44-2.39-.79-4.54-2.47-7.13-2.42-3.34.06-6.53-.67-9.72-1.38-3.5-.78-7.03-.79-10.57-1.02-2.8-.18-5.61-.54-8.39-.24-6.01.63-12.08-.2-18.05.93-1.05.2-2.11.43-3.13.74-5.22,1.58-10.45,3.14-15.56,5.09-.52-.42-1.16-.78-.96-1.63,2.38-1.14,4.96-1.75,7.43-2.64.55-.2,1.15-.28,1.71-.5,6.5-2.48,13.16-4.1,20.18-3.76,2.81.14,5.6-.17,8.4-.31,4.43-.22,8.83.39,13.26.38,2.25,0,4.46.75,6.67,1.21,1.97.42,3.91.76,5.92.66,2.16-.11,4.11.47,6.09,1.34,2.56,1.12,5.21,2.07,7.86,2.96,2.31.78,4.52,1.77,6.79,2.63,4.19,1.58,8.09,3.82,12.27,5.37,2.69,1,5.33,1.99,7.71,3.61.91.62,1.24.16,1.28-.78.04-1.05-.18-2.03-.63-2.98-.6-1.27-1.2-2.54-1.7-3.85-.2-.53-.57-1.08-.14-1.68.24-.39.64-.32,1.01-.33,1.82,1.91,1.98,4.58,3.13,6.8.95,1.82,1.18,3.89,1.77,5.83.92,3.03,3.04,4.98,5.39,6.79.95.73,1.78,1.54,2.37,2.59-.38.13-.76.27-1.14.4Z"/>
      <path class="cls-7" d="m260.89,160.77c.69,1.2,1.37,2.41,2.14,3.75-.95.11-1.74-.03-2.5-.41-4.48-2.2-9.28-3.65-13.74-5.89-.66-.33-1.3-.47-.91-1.48,1.79-4.67,2.41-9.67,4.07-14.38.27-.76.45-1.54.67-2.31.11-.07.21-.13.32-.2.23-.06.44,0,.62.14.04,1.21.52,2.3,1.02,3.37,2.73,5.82,4.96,11.88,8.32,17.4Z"/>
      <path class="cls-1" d="m328.45,134.88c-2.58-2.48-5.02-5.09-7.37-7.79,1.72-2.19,4.11-2.32,6.63-2.28,3.54.06,7.03-.67,10.55-.88,2.17-.13,4.43-.22,6.4.93,1.71,1,1.73,1.91.4,3.33-1.96,2.09-4.16,3.27-7.21,3.22-2.83-.05-5.58.94-8.21,2.09-.61.27-1.14.64-1.18,1.4Z"/>
      <path class="cls-2" d="m242.56,163.73c.79-.6,1.32-1.39,1.65-2.32.34-.97.91-1.22,1.99-1.02,2.09.39,4.01,1.28,5.85,2.17,2.42,1.17,4.97,2.03,7.36,3.25,1.61.83,3.53.77,5.16,1.69,1.14.65,2.06,1.32,2.27,2.69-5.6-.39-11.22-.52-16.81-.26-3.47.16-6.99.22-10.39,1.17-.61-.36-1.21-.72-.7-1.57,1.45-1.78,2.42-3.87,3.62-5.81Z"/>
      <path class="cls-1" d="m235.64,126.8c1.17-.08,1.42.19,1.17,1.12-.48,1.81-1.02,3.65-1.16,5.5-.28,3.79-2.08,7.1-3.07,10.66-.19.67.04,1.41-.39,2.04-.18.27-.29.6-.67.62-.39.02-.62-.28-.68-.59-.45-2.18-1.34-4.17-2.49-6.07-.35-.58.18-1.02.7-1.42,3.18-2.43,4.16-5.98,2.75-9.69-.55-1.43-.28-1.83,1.27-1.88.49-.01.98.03,1.45-.03.47-.06.94-.22,1.12-.26Z"/>
      <path class="cls-1" d="m179.68,142.42c-1.85-1.89-3.7-3.79-5.55-5.68.58-.31.64-.95.92-1.46.86-1.58,2.3-2.18,3.93-1.51,1.74.72,3.53,1.4,5.09,2.42,1.39.91,2.72,2.1,2.69,4.08-.02,1.12-.49,1.59-1.63,1.76-1.82.26-3.64.26-5.46.38Z"/>
      <path class="cls-1" d="m207.19,189.65c2.79-.9,5.6-1.75,7.96-3.6,1.48-.09,1.89,1.27,2.75,2.02-.28.45-.43,1.01-.96,1.27-.47.38-.97.44-1.52.2-.38-.28-.48-.62-.21-1.07-1.98,1.19-4.11,1.97-6.24,2.73-.5.18-1,.46-1.54.13-.37-.52-.66-1.05-.24-1.68Z"/>
      <path class="cls-1" d="m303.79,188.29c-.85.63-1.76.51-2.38-.2-.44-.5-1.05-.64-1.48-1.08,1.9-.6,2.97-.25,3.86,1.28Z"/>
      <path class="cls-3" d="m269.44,93.72c.11.63.22,1.27.34,1.9-1.02.11-2.57.93-2.92.1-.41-.96,1.41-.98,2.05-1.68.13-.15.35-.22.54-.32Z"/>
      <path class="cls-3" d="m379.65,154.34c0,.43.02.86.03,1.29-1.03.15-.63,1.49-1.53,1.8-.46.15-.88.82-1.1-.19.87-.97,1.21-2.41,2.61-2.9Z"/>
      <path class="cls-1" d="m129.05,91.76c-.74.04-1.48.08-2.23.11-.3-.15-.49-.35-.35-.71,1.35-.64,2.76-.3,4.15-.21-.45.24-.69.59-.6,1.12-.25.02-.49,0-.65-.23-.08-.16-.16-.32-.33-.07Z"/>
      <path class="cls-3" d="m369.63,164.68c-.1,1.8-.86,2.54-2.69,2.61.52-1.25,1.55-1.99,2.69-2.61Z"/>
      <path class="cls-3" d="m238.94,169.54c-.17.7.54,1.01.7,1.57-.37.19-.73.41-1.11.57-.35.15-.73.65-1.1.17-.28-.37-.07-.82.25-1.14.41-.41.84-.79,1.26-1.18Z"/>
      <path class="cls-3" d="m342.37,93.99c-.03-1.01.65-.97,1.34-.91.59.21,1.77-.55,1.59.95-.98.57-1.96.33-2.93-.04Z"/>
      <path class="cls-1" d="m345.29,94.03c-.07-1.09-1.23-.35-1.59-.95,0,0,0,0,0,0,.11-.1.19-.25.37-.25.96,0,1.91.01,2.87.02,0,1.14-.97.97-1.65,1.19Z"/>
      <path class="cls-3" d="m223.07,94.34c.01-.22.03-.44.04-.66.27.21.71.38.43.82-.13.2-.35.04-.47-.16Z"/>
      <path class="cls-4" d="m251.55,140c-.21-.05-.41-.09-.62-.14.03-.26.22-.35.42-.32.24.04.27.25.2.46Z"/>
      <path class="cls-4" d="m283.6,97.31c-.04.2-.09.4-.13.6-.16-.25-.48-.52.13-.6Z"/>
      <path class="cls-1" d="m298.91,186.9c-.1-.05-.2-.11-.31-.16.1.05.2.11.31.16Z"/>
      <path class="cls-1" d="m131.35,90.95c.08-.07.17-.08.27-.03-.09.01-.18.02-.27.03Z"/>
      <path class="cls-3" d="m6.17,317.64c.04-.3.07-.6.1-.91.2.33.16.63-.1.91Z"/>
      <path class="cls-3" d="m30.5,276.31c.25-.14.46-.12.6.16-.2-.05-.4-.11-.6-.16Z"/>
      <path class="cls-3" d="m121.94,302.72c.1-.14.19-.13.27.01,0,0-.14.03-.14.03l-.13-.04Z"/>
      <path class="cls-3" d="m157.86,330.66c-.1.07-.2.14-.31.2.1-.07.2-.14.31-.2Z"/>
      <path class="cls-3" d="m157.47,330.94c.03.19-.06.28-.24.28.08-.09.16-.19.24-.28Z"/>
      <path class="cls-3" d="m242.89,298.55c0-.22-.01-.44-.02-.66,1.43-1.43,3.44-1.66,5.18-2.43,2.47-1.11,4.65-2.44,6.18-4.71.2.12.4.24.6.36-1.36,3.14-4.08,4.79-7.03,5.96-1.56.62-3.15,1.37-4.9,1.48Z"/>
      <path class="cls-3" d="m239.57,299.36c.15-.35.32-.61.66-.16-.17.25-.4.28-.66.16Z"/>
      <path class="cls-3" d="m255.19,290.44c.04-.1.09-.21.13-.31-.04.1-.09.21-.13.31Z"/>
      <path class="cls-3" d="m268.46,265.15c-.11.11-.21.26-.35.33-.57.26-1.42.74-1.69.05-.27-.7.58-.99,1.27-1.04.35.1.6.33.76.66Z"/>
      <path class="cls-3" d="m276.54,262.29h-.13s-.13,0-.13,0c.08-.21.17-.22.26,0Z"/>
      <path class="cls-3" d="m315.14,278.43c.15-.28.36-.34.63-.15-.21.05-.42.1-.63.15Z"/>
      <path class="cls-3" d="m314.82,278.75c.1-.1.21-.2.31-.31-.1.1-.21.2-.31.31Z"/>
      <path class="cls-1" d="m193.6,303.2c.12-.14.24-.28.36-.41-.12.14-.24.28-.36.41Z"/>
      <path class="cls-1" d="m199,294.98c-.02-.08-.05-.16-.05-.24,0-.02.08-.05.12-.07-.02.11-.05.21-.07.32Z"/>
      <path class="cls-4" d="m69.03,30.31c.09-2.09-.23-3.98.84-5.73.66-1.09,1.35-2.07,2.46-2.71,3.19-1.85,6.03-4.17,9.78-5.17,3.32-.88,6.46-.77,9.72-.35,2.37.31,4.55,1.26,6.81,1.95,2.11.65,3.91,1.84,5.13,3.71.74,1.13,1.75,1.86,2.89,2.51,2.19,1.23,2.37,3.25.79,5.15-2.81,3.4-6.96,4.81-10.38,7.29-2.07,1.5-4.51,1.85-6.78,2.72-2.43.93-4.85,2.03-7.25,3.1-1.23.55-2.4,1.04-3.51,1.88-2.29,1.74-5.28,1.22-6.42-1.4-1.3-2.98-3.34-5.64-3.86-8.98-.22-1.41-.06-2.8-.23-3.96Z"/>
      <path class="cls-3" d="m69.72,56.09c-.13-.08-.26-.16-.39-.24.13.08.26.16.39.24Z"/>
      <path class="cls-4" d="m323.65,29.25c.16,2.29-.37,4.29-1.38,6.3-.93,1.84-1.1,4.03-2.83,5.5-1.45,1.23-2.86,1.43-4.55.53-2.99-1.6-6.05-3.06-9.02-4.7-1.4-.78-2.6-1.9-3.96-2.77-3.66-2.36-7.59-4.23-11.53-6.07-2.8-1.3-4.02-3.93-3.37-7.06.7-3.37,2.83-5.61,5.59-7.37,1.22-.78,2.54-1.42,3.84-2.06,1.33-.65,2.74-.69,4.08-.12,1.94.82,3.95,1.16,6,.89,3.37-.44,6.11.93,8.96,2.46,5.9,3.16,7.38,8.59,8.15,14.47Z"/>
      <path class="cls-3" d="m327.51,8.43c.1,0,.2.02.3.06-.15.22-.24.18-.3-.06Z"/>
      <path class="cls-3" d="m325.59,7.45c.11.1.22.2.33.3-.11-.1-.22-.2-.33-.3Z"/>
      <path class="cls-2" d="m207.5,191.2c2.36-.65,4.64-1.53,6.78-2.7,1.24-.67,1.03.08.95.81-.8,2.18-2.22,4.07-3,6.24-2.94,8.19-7.39,15.83-8.94,24.55-1.45,8.15-.12,15.72,3.98,22.88.96,1.68,2.58,2.73,3.76,4.18.89.77,1.78,1.55,2.68,2.31,1.55,1.31,2.69,2.7,1.01,4.7-.36,2.86,1.19,5.19,2.26,7.62.51,1.16.94,2.24.93,3.52-.05,5.17-.08,10.33-1.62,15.36-.3.99-.62,1.39-1.71,1.44-5.05.25-10.06.9-15.08,1.48-1.28.15-2.59.07-3.89.04-.82-.02-1.61.08-2.37.41-5.38.14-10.78-.5-16.15.52-1.61.31-3.36-.23-4.97-.15-3.04.16-6.16-.17-9.13.77-1.56.49-3.14.76-4.77.73-1.4-.03-2.81-.06-4.21,0-11.17.47-22.34.4-33.52.35-5.6-.03-11.19-.2-16.77-.89-2.26-.28-4.49-.39-6.59-1.35-.14-.07-.32-.09-.48-.09-5.86-.05-11.26-2.77-17.12-2.93-1.16-.03-2.35-.38-3.45-.8-1.81-.69-3.66-.87-5.56-.77-3.62.2-7.03-.98-10.45-1.8-4.81-1.14-9.51-2.72-14.24-4.17-1.25-.38-2.53-.5-3.8-.71-2.17-.35-3.79-1.74-5.6-2.76-1.39-.79-2.75-1.47-4.41-1.27-1.53.19-2.35-.89-3.21-1.85-.39-.44-.61-1.03-1.26-1.18-.13-.68-.41-1.2-1.21-1.21-.25-.35-.43-.78-.75-1.04-3.39-2.68-4.84-6.62-6.76-10.26.05-.88-.16-1.7-.63-2.44-.97-1.53-1.4-3.22-1.45-5.02-.06-.13-.13-.24-.22-.35-.16-1.26-1.06-2.24-1.31-3.46-.37-1.78-.47-3.56-.46-5.41,0-3.25-.54-6.51-.96-9.75-.36-2.72-.49-5.46-.77-8.18-.54-5.15-.17-10.28,1.45-15.27.44-1.37.64-2.82.95-4.23,1.43-6.22,1.83-12.62,3.44-18.83.98-3.78,2.15-7.54,2.61-11.46.1-.82.63-1.59.93-2.39,1.21-3.33,1.6-6.88,2.86-10.2.45-1.2.64-2.5,1.19-3.68.69-1.48.96-3.07,1.27-4.65.5-2.6,1.25-5.12,2.27-7.57,1.91-4.56,3.6-9.26,6.39-13.35,1.87-2.74,3.68-5.54,5.58-8.25,1.81-2.59,3.79-5.05,5.56-7.66.94-1.39,2.24-2.38,3.55-3.25,2.02-1.35,3.95-2.8,5.84-4.32.91-.73,1.96-1.29,2.96-1.91,1.12-.69,1.74-.38,1.76.95.03,1.63-.55,3.17-.93,4.73-.52,2.15-1.02,4.28-1.09,6.5-.03.78-.27,1.62-.63,2.32-1.25,2.45-1.65,5.26-3.23,7.57-.15.22-.23.49-.27.76-.07.47.09.88.57,1.03.5.16.86-.11.97-.59.58-2.54,2.3-4.63,2.75-7.23.16-.93.67-1.81,1.1-2.68.94-1.91.56-4.03,1-6.02.32-1.47.43-2.99.89-4.41.5-1.54.42-2.95-.23-4.38-.1-.23-.35-.49-.09-.73.31-.28.59-.03.85.16.99.74,1.66,1.84,2.79,2.45,2.77,1.49,5.77,2.35,8.77,3.21,1.38-.08,2.35.97,3.6,1.3,6.11,1.61,12.26,3,18.55,3.67.91.1,1.58.38,1.65,1.4.09,1.45.34,2.89.41,4.35.07,1.7-.5,2.69-2.27,2.84-.32.03-.63.15-.94.22-1.13.29-2.32.02-3.46.49,1.14.6,2.33.49,3.53.15,2.43-.59,2.9-.24,3.08,2.17.48,6.5,2.11,12.77,4.14,18.93,1.27,3.86,2.11,7.82,3.02,11.75.92,3.95,2.36,7.63,4.47,11.04,4.52,7.31,10.23,13.63,16.75,19.17,3.03,2.58,6.38,4.82,10.29,5.99,4.25,1.28,8.08,3.58,12.24,5.1,6.83,2.5,13.73,4.56,21,5.13,3.28.26,6.56.05,9.85-.28,4.91-.48,9.65-1.81,14.48-2.63.48-.08.98-.18,1.38-.45,2.89-1.87,6.27-2.61,9.33-4.09.48-.23.97-.52,1.53-.21Z"/>
      <path class="cls-2" d="m193.25,285.64c4.32-.5,8.64-1.05,12.97-1.5,2.62-.27,5.26-.36,7.89-.54,1.01-.07,1.38.33,1.17,1.35-.36,1.74-.66,3.48-1,5.22-.07.37-.2.73-.35,1.07-1.29,2.94-2.18,3.21-4.72,1.3-1.68-1.26-3.27-2.64-4.95-3.91-.55-.42-1.23-.66-1.84-1-1.21-.68-1.97-.18-2.68.86-1.58,2.31-2.09,5.05-3.14,7.57-.72,1.73-1.67,3.28-3.69,3.74-6.56.39-13.1.93-19.68,1.11-3.77.1-7.54.11-11.31.2-1.83.04-3.67-.03-5.45.55-.44.14-.98.15-1.44.06-3.52-.76-7.05-.82-10.6-.25-1.69.27-3.31-.34-4.99-.33-4.54.02-9.09.24-13.61-.09-3.66-.27-7.34.03-10.97-.52-.21-.03-.46.01-.64-.08-4.16-2.02-8.84-1.71-13.18-2.98-2.35-.69-4.87-.78-7.31-1.15-.45.17-.9.19-1.34-.02-2.31-.28-4.51-1-6.74-1.59-2.52-.66-5.17-.32-7.66-1.04-5.71-1.63-11.7-1.66-17.42-3.25-4.53-1.26-8.87-3.02-12.83-5.52-2.99-1.9-5.64-4.32-8.56-6.35-2.18-1.52-4.36-2.96-6.94-3.68-1.29-.36-2.14-3.39-1.22-4.33.13-.13.41-.25.57-.2,1.61.53,3.34.27,4.94,1.26,3.02,1.87,6.25,3.41,9.92,3.6.73.04,1.32.46,1.99.65,2.22.63,4.53,1.06,6.66,1.92,4.48,1.82,9.36,1.98,13.89,3.52.2.07.43.1.64.09,5.14-.38,9.99,1.35,14.98,2.04,4.53.62,8.9,1.99,13.43,2.62,2.44.34,5,.35,7.31.98,5.47,1.48,10.95.72,16.41.8,11.07.16,22.14-.01,33.22.09,3.03.03,5.85-.82,8.75-1.36,2.53-.47,5.06-.23,7.59-.3,6.96-.18,13.91-.51,20.87-.36.37,0,.76.05,1.08-.23Z"/>
      <path class="cls-3" d="m92.39,296.3c.45,0,.89.01,1.34.02-.45.36-.9.37-1.34-.02Z"/>
      <path class="cls-3" d="m361.85,252.2c.61.06.97.34.92,1.01-.57-.1-.92-.39-.92-1.01Z"/>
      <path class="cls-3" d="m359.24,251.25c.46-.02.95-.14,1.33.27-.46.01-.96.17-1.33-.27Z"/>
      <path class="cls-3" d="m357.3,251.25c.22,0,.44,0,.65-.01-.21.32-.43.32-.65.01Z"/>
      <path class="cls-2" d="m254.22,290.75c-.33,1.98-1.91,2.92-3.4,3.76-2.51,1.41-5.22,2.45-7.95,3.38-1.55.1-3.11.22-4.66.31-.6.03-.86.27-.87.88-.03,1.41-.65,2.57-1.56,3.63-.7.83-1.12,1.83-1.47,2.86-.34,1-.94,1.32-2,.85-4.13-1.83-8.34-3.42-11.66-6.75-1.69-1.7-3.95-2.8-6.18-3.79-1.05-.46-1.44-.96-.61-2.05,1.02-1.34,1.65-2.91,1.81-4.6.3-3.12,1.27-6.09,1.98-9.12,1.17-5.01,1.59-10.08,1.47-15.21-.06-.13-.11-.26-.16-.4-.1-3.13-2.23-5.56-2.95-8.49-.15-.62-.48-1.2-.41-1.87,2.04-1.76,7.51-1.41,10.14,1.25,1.17,1.18,2.31,2.26,2.82,4.01.7,2.46,1.55,2.84,4.19,2.89,2.47.05,4.91-.12,7.28-.97.73-.26,1.6-.17,2.4-.18,3.22-.05,6.17-1.54,9.3-1.86,3.86-.39,7.8-1.3,11.61.38,1.1.49,2.4.77,2.53,2.37.18,2.24.23,2.37-1.96,2.72-4.21.66-7.97,2.59-11.91,3.99-.47.17-.93.43-1.01.95-.1.65.53.73.93.94,1.17.61,2.64.79,3.31,2.14,1.1,2.2,1.06,4.58-.24,6.48-1.29,1.9-2.94,3.78-5.56,4.11-.4.05-.98.16-.92.7.06.54.62.52,1.05.49.94-.07,2.07-.74,2.74.18.94,1.28,1.73,2.73,1.88,4.39.05.54.02,1.08.03,1.62Z"/>
      <path class="cls-2" d="m262.31,267.44c-.81.58-1.8.7-2.7,1.06-.53.21-.99.63-1.45,1-.26.21-.4.53-.17.85.24.33.57.28.86.09,2.08-1.4,4.57-1.87,6.81-2.91,2.32-1.07,4.82-1.8,7.41-2.02.83-.07,1.47.22,1.61,1.2.08.58.22,1.19.5,1.69.85,1.53.2,2.58-1.01,3.46-1.36,1-3.06,1.29-4.5,2.14-1.11.66-2.34,1.16-3.35,1.94-3.65,2.79-7.79,4.67-11.96,6.7-.27-.95.24-1.49.72-2.08,2.01-2.5,2.56-5.28,1.5-8.33-.25-.72-.71-1.29-1.34-1.78-.65-.52-.59-1.09.21-1.51,2.06-1.09,4.21-1.89,6.53-2.19.29.14.49.33.33.69Z"/>
      <path class="cls-6" d="m211.04,247.14c-1.33-.46-2.35-1.4-3.11-2.5-1.8-2.62-3.46-5.33-4.01-8.55-.04-.21-.06-.43-.14-.63-2.73-6.78-1.45-13.48.27-20.23,1.34-5.26,4.02-9.95,5.88-14.98,1.01-2.73,2.11-5.4,3.39-8,.52-1.06,1-2.15,1.91-2.96.56,0,1.13.02,1.7.03-.29,1.36-1.2,2.4-1.84,3.57-2.35,4.32-3.39,9.15-5.35,13.63-.77,1.77-1.35,3.6-2.53,5.18-1.23,1.64-1.21,3.75-1.92,5.61-1.37,3.61-1.35,7.43-.96,11.14.48,4.62,1.3,9.25,4.05,13.24.96,1.4,2.35,2.36,3.39,3.68-.52.48-.57,1.15-.73,1.77Z"/>
      <path class="cls-2" d="m232.43,261.03c-1.36.13-2.04-.87-2.69-1.77-.37-.51-.39-1.31.59-1.13,2.03.37,3.72,1.59,5.56,2.42l-.2.39c-.08.12-.19.2-.33.22-.85.16-1.69,0-2.52-.16-.14.06-.28.06-.42.02Z"/>
      <path class="cls-3" d="m262.31,267.44c-.11-.23-.22-.46-.33-.69.96-.25,1.93-.49,2.89-.76.42-.12.8-.05.89.39.08.39-.35.53-.64.59-.93.19-1.88.32-2.82.47Z"/>
      <path class="cls-3" d="m232.43,261.03c.14,0,.28-.01.42-.02-.13.18-.27.19-.42.02Z"/>
      <path class="cls-3" d="m235.36,261.17c.11-.07.22-.15.33-.22-.11.07-.22.15-.33.22Z"/>
      <path class="cls-6" d="m95.64,118.66c.08-.06.16-.16.25-.19.86-.25,2.16-.24,2.47-.79.44-.78.18-1.97.16-2.99-.02-.64-.17-1.27-.22-1.91-.19-2.13-.19-2.11-2.4-2.23-2.69-.15-5.24-1.1-7.91-1.4-3.22-.36-6.25-1.48-9.38-2.18-1.38-.31-2.61-.97-3.75-1.81-.58-2.08-1.9-3.8-2.89-5.67-.57-1.08-1.68-.59-2.56-.07-.53.31-.97.98-1.7.53-.77-.49-.73-1.35-.55-2.04.34-1.28.25-2.55.28-3.84.01-.61.05-1.25.67-1.53.69-.31,1.05.2,1.41.72.3.44.9.74,1.09.05.44-1.6,1.77-2.06,3.01-2.67.5-.25.97-.49.96-1.16,1.31-1.18,3.03-.98,4.58-1.29.92-.18,1.71-.4,2.03-1.33,1.56-4.65,5.2-7.44,9.04-9.97,3.74-2.46,7.69-4.57,11.79-6.39.94-.42,1.88-.82,2.81-1.25.57-.26,1.15-.69,1.81-.19.53.28.98.63,1.02,1.3-4.96,1.35-9.45,3.75-13.83,6.33-3.09,1.82-6.16,3.75-8.54,6.51-1.26,1.46-2.14,3.21-2.89,5,.14.23.45.15.62.34h0c.11.11.23.12.35.02,6.66,1.01,13.41.9,20.08,1.85,1.61.23,3.22-.18,4.83-.22,4.26-.11,8.49.18,12.72.81,1.8.27,3.66.12,5.49.16.12.24.23.47.35.71-3.11,2.08-3.51,4.28-1.13,7.44,4.96,6.61,9.73,13.38,15.16,19.63-1.52,3.75.48,6.92,1.75,10.17,2.7,6.93,5.78,13.7,8.66,20.54,1.01,2.39,3.06,3.37,5.39,3.95.92.23,1.14-.38,1.13-1.11-.04-2.75.17-5.49-.15-8.24-.23-1.94.08-3.75,1.66-5.13,5.25,5.43,10.48,10.89,15.77,16.28,7.99,8.13,16.01,16.22,24.04,24.31,2.57,2.59,4.4,5.72,6.52,8.64.41.56.78,1.18,1.56,1.29.11.52.21,1.03.32,1.55-3.42,1.84-7.2,2.81-10.67,4.62-2.25,1.18-5.08,1.25-7.65,1.83-11.56,2.64-22.9,2.15-34.2-1.7-6.8-2.32-13.28-5.38-19.97-7.95-3.94-1.51-7.28-4.2-10.35-7.09-4.25-3.99-8.16-8.34-11.62-13.02-3.34-4.52-6.01-9.4-7.2-15.04-1.42-6.74-3.51-13.32-5.44-19.93-1.04-3.57-1.53-7.27-1.79-10.97-.15-2.2.05-2.67-2.65-2.04-.43-.33-.71-.71-.33-1.25Z"/>
      <path class="cls-2" d="m106.62,69.05c-3.21,1.24-6.35,2.62-9.41,4.22-3.98,2.08-7.67,4.56-11.25,7.25-1.24.93-2.19,2.03-2.82,3.46-.54,1.23-1.23,2.39-1.81,3.61-.32.68-.8.93-1.52.98-1.78.11-3.52.44-5.24.91-2.72.09-5.42.2-7.79,1.83-.47.33-1.08.47-1.64.65-.77.25-1.09-.17-.85-.83,1.89-5.06,1.6-10.46,2.55-15.65.33-1.81.68-3.57.59-5.4,0-.88,0-1.75,0-2.63.88-2.46,1.75-4.92,2.63-7.38,3.24-2.54,5.64-5.88,8.24-9,2.26-2.71,5.18-4.41,8.28-5.75,4.42-1.91,8.91-3.7,13.5-5.14,4.71-1.48,9.21-3.49,13.85-5.11,2.93-1.02,6.1-1.31,8.95-2.67.43-.02.97.13,1.27-.07,1.71-1.15,3.62-.84,5.49-.91,5.34-.2,10.67-.35,16.01-.3,3.62.03,7.18.57,10.74,1.14,1.48.24,3,.27,4.5.31,2.25.06,4.27,1.06,6.39,1.62,1.91.51,3.83.45,5.73.8,3.54.64,7.07,1.31,10.44,2.59,1.44.55,2.71,1.53,4.27,1.79,1.4,1.44,3.22,2.26,4.91,3.24,3.03,1.76,5.28,4.25,7.3,7.02,1.6,3.5,3.85,6.68,5.18,10.34,1.02,2.82,2.33,5.54,3.53,8.29.32.73.56,1.51,1.14,2.11.67,1.58,1.26,3.2,2.02,4.74.72,1.44,1.04,2.91.93,4.51-.08,1.24-.57,1.4-1.53.76-.54-.36-1.12-.66-1.63-1.05-2.89-2.2-6.61-2.48-9.71-4.21-.42-.23-.98-.25-1.34-.54-2.46-1.98-5.61-2.41-8.37-3.72-5.1-2.42-10.63-3.77-15.76-6.15-.62-.29-1.37-.47-2.04-.43-4.7.29-9.18-.92-13.69-1.92-.26-.06-.53-.11-.8-.1-4.59.21-9.16-.69-13.73-.32-4.53.37-9.06.1-13.57.36-2.17.12-4.32.74-6.47,1.2-3.53.76-6.88,2.03-10.32,3.06-2.41.72-4.76,1.64-7.14,2.47Z"/>
      <path class="cls-3" d="m218.96,264.5c.05.13.11.27.16.4-.05-.13-.1-.27-.16-.4Z"/>
      <path class="cls-1" d="m16.55,245.36c.07.12.14.23.22.35-.07-.12-.14-.23-.22-.35Z"/>
      <path class="cls-2" d="m351.48,269.37c-.04,1.95-.05,1.9-1.96,2.31-1.4.3-2.77.73-4.15,1.1-1.53.23-2.98.89-4.57.83-.98-.04-1.88-.32-2.24-1.27-.37-.96.17-1.78.9-2.41,1.11-.97,2.29-1.66,3.91-1.53,1.76.14,3.54.02,5.32-.02,1.07-.02,2.01.24,2.8.98Z"/>
      <path class="cls-6" d="m258.58,179.93c2.92.12,5.7-.31,8.41.33,2.66.63,5.55.77,7.31,3.49,2.07,3.19,1.81,8.14-.57,11.53-1.98,2.81-4.26,5.22-7.11,7.15-1.14.77-2.31,1.38-3.61,1.74-.83.23-1.14.73-1.39,1.56-.94,3.1-1.13,6.26-.91,9.44.22,3.26-1.05,6.39-.7,9.64.07.62-.64,1.34,0,1.83.89.67,1.81,1.57,2.96,1.55,3.94-.07,8.03.84,11.66-1.57.22-.15.49-.27.75-.29,3.93-.31,6.6-2.89,9.43-5.18.25-.2.45-.47.7-.68.56-.49,1.22-.89,1.85-.23.55.58.03,1.21-.38,1.54-1.9,1.53-3.63,3.19-5.9,4.37-2.68,1.39-5.61,1.86-8.28,3.13-3.14,1.49-6.55,1.46-9.85,1.12-2.62-.28-5.16.07-7.73.11-4.49.06-8.94-.06-13.22-1.65-1.54-.57-3.17-.49-4.77-.69-2.69-.34-5.04-1.83-7.65-2.53-.24-.07-.47-.27-.66-.45-.25-.25-.7-.45-.5-.91.16-.36.56-.21.87-.25,1.77-.2,3.4.33,5.03.95,2.99,1.13,6.33.71,9.28,1.96,4.09,1.74,8.37,1.21,12.6,1.32,1.03.03,1.25-.4,1.28-1.34.08-3.55.68-7.05,1.1-10.57.42-3.47.62-6.98.47-10.49-.02-.56-.17-.96-.81-.96-2.52.01-4.55-1.26-6.53-2.56-2.86-1.89-5.81-3.62-7.48-6.92-2.07-4.1-2.37-7.98.32-11.88,1.52-2.21,4.03-2.56,6.29-3.25,2.57-.78,5.26-.14,7.72-.34Z"/>
      <path class="cls-3" d="m83,88.53c-.28,0-.53-.01-.62-.34.26.02.49.09.62.34Z"/>
      <path class="cls-3" d="m83.35,88.55c-.13.15-.25.16-.35-.02.12,0,.23.02.35.02Z"/>
      <path class="cls-3" d="m344.07,92.82c-.12.08-.25.17-.37.25.12-.08.25-.17.37-.25Z"/>
      <path class="cls-1" d="m159.29,139.13c-.99,1.94-1.49,3.87-1.15,6.17.37,2.48.08,5.06.09,7.59,0,1.1-.28,1.54-1.56,1.21-3.06-.79-5.26-2.26-6.3-5.5-1.27-3.92-3.46-7.49-4.93-11.36-1.69-4.47-3.52-8.89-5.33-13.32-.75-1.83-.24-3.43.73-4.98,2.72,2.74,5.12,5.77,7.67,8.67,3.47,3.95,7.07,7.78,10.77,11.52Z"/>
      <path class="cls-6" d="m129.05,91.76c.05-.12.1-.24.15-.36.06.15.12.29.18.44-.11-.02-.22-.05-.33-.07Z"/>
      <path class="cls-1" d="m95.64,118.66c.11.42.22.84.33,1.25-1.04.64-2.19.36-3.3.32-.63-.02-1.2-.43-1.13-1.11.07-.65.75-.44,1.2-.45.96-.02,1.93-.01,2.89-.02Z"/>
      <path class="cls-1" d="m120.37,117.66c2.84.56,5.67,1.12,8.6,1.1.76,0,1.82.36,2.02,1.54.22,1.29-.68,1.69-1.59,2.07-.89.37-1.87.59-2.67,1.11-2.84,1.83-3.86,7.12-1.96,9.96,1.09,1.63,2.65,2.64,4.58,2.98.74.13,1.5.31,1.56,1.13.09,1.11-.06,2.27-.63,3.23-.29.49-.96.18-1.48-.03-2.95-1.17-5.39-3.1-7.67-5.23-1.21-1.13-2.53-2.2-3.39-3.67-.57-.97-.69-1.99.14-2.81,2.28-2.27,1.85-6.93-.39-9.11-.33-.32-.86-.63-.69-1.18.19-.6.78-.68,1.33-.71.75-.04,1.44-.49,2.23-.36Z"/>
      <path class="cls-1" d="m70.36,96.38c0,.56-.08,1.13-.79,1.15-.52.02-.75-.48-.71-.88.07-.62.56-1.11,1.13-1.16.48-.05.31.55.36.89Z"/>
    </g>
  </g>
</svg>